<svg version="1.1" id="Layer_1" xmlns="http://www.w3.org/2000/svg" xmlns:xlink="http://www.w3.org/1999/xlink" x="0px" y="0px"
	 width="100%" viewBox="0 0 82 78" enable-background="new 0 0 82 78" xml:space="preserve">
<path fill="#FDFDFD" opacity="1.000000" stroke="none" 
	d="
M54.000000,79.000000 
	C36.027382,79.000000 18.554766,79.000000 1.041075,79.000000 
	C1.041075,53.068119 1.041075,27.136160 1.041075,1.102099 
	C28.222158,1.102099 55.444828,1.102099 82.833748,1.102099 
	C82.833748,26.999126 82.833748,52.999481 82.833748,79.000000 
	C73.470222,79.000000 63.985111,79.000000 54.000000,79.000000 
M57.973839,30.506174 
	C57.356945,30.227987 56.740051,29.949800 56.237324,29.021532 
	C56.112431,27.412340 55.987541,25.803148 56.123779,23.675072 
	C56.413742,23.426743 56.703705,23.178411 57.691719,22.996082 
	C59.838459,21.344791 61.985203,19.693501 64.569763,17.985931 
	C64.569763,17.985931 64.998055,17.879095 65.627365,17.937464 
	C66.124512,17.304811 66.621666,16.672157 67.598061,15.890385 
	C68.007851,15.612694 68.417641,15.335002 69.111519,15.678404 
	C70.710899,17.380659 72.087440,17.837034 73.253845,14.372872 
	C73.889824,12.821039 74.525795,11.269206 75.355980,9.243490 
	C72.525940,8.722563 70.502991,8.293068 68.461304,7.989865 
	C66.259399,7.662869 65.345810,8.577789 65.541245,11.311444 
	C62.058937,13.471540 58.576630,15.631638 54.876762,17.345863 
	C54.622219,17.110992 54.321938,16.986061 53.584961,16.191183 
	C40.302456,16.094730 27.019880,15.962358 13.737598,15.986908 
	C12.899258,15.988457 12.063178,17.213289 11.060781,18.610683 
	C10.809155,20.549692 9.138499,23.026697 12.899010,24.046211 
	C12.914602,24.644886 12.930196,25.243559 12.181520,26.000723 
	C11.959394,26.426693 11.485624,26.897396 11.552220,27.272045 
	C12.946790,35.117428 14.020640,43.050903 16.014616,50.744942 
	C16.947399,54.344215 16.520653,59.467628 22.764780,60.867607 
	C40.159363,60.867607 57.553944,60.867607 75.676476,60.867607 
	C74.866386,59.156536 74.337166,58.038731 74.281815,56.679829 
	C74.366455,56.538364 74.507133,56.401661 74.519684,56.254066 
	C74.531761,56.111942 74.444695,55.929260 74.343941,55.814777 
	C73.583588,54.950775 72.310707,54.188065 72.139153,53.225895 
	C71.738792,50.980537 72.108429,48.595150 71.684265,46.357841 
	C71.445557,45.098686 70.249535,44.021023 69.484772,42.861599 
	C68.649879,43.883926 67.814987,44.906254 66.388702,46.248238 
	C65.955902,47.419212 65.523094,48.590187 64.745422,49.213551 
	C64.144791,49.122253 63.544163,49.030956 62.343330,48.968159 
	C61.942852,48.975597 61.542377,48.983032 61.057911,48.311432 
	C60.630058,47.533695 60.202209,46.755962 60.257816,45.634125 
	C60.020725,43.697521 59.783630,41.760914 59.433537,39.436062 
	C59.433537,39.436062 59.142506,39.155338 59.139832,38.374310 
	C59.048492,37.601151 58.957157,36.827995 58.958282,35.483189 
	C58.729176,34.983692 58.500072,34.484192 58.168919,33.253551 
	C58.070293,32.522125 57.971672,31.790699 57.973839,30.506174 
M13.735448,68.661247 
	C14.158486,69.078712 14.581526,69.496185 15.393074,70.090851 
	C15.393074,70.090851 15.817575,70.137093 15.855574,70.998421 
	C16.591049,71.990616 17.305117,73.826035 18.065292,73.845337 
	C26.200375,74.051872 34.345196,74.082199 42.481670,73.903015 
	C44.993999,73.847687 46.354378,72.588196 43.237854,70.068863 
	C42.811512,70.016937 42.385174,69.965019 42.034359,69.331673 
	C42.408062,68.534966 42.781769,67.738258 43.223171,66.797234 
	C40.602955,66.797234 38.363064,66.797234 35.602409,66.146278 
	C32.718872,66.085526 29.835337,66.024765 26.633606,65.167366 
	C23.399738,65.179787 20.165871,65.192200 16.186537,65.060112 
	C15.428785,66.042030 14.671033,67.023941 13.735448,68.661247 
z"/>
<path fill="#454583" opacity="1.000000" stroke="none" 
	d="
M73.807953,56.920925 
	C74.337166,58.038731 74.866386,59.156536 75.676476,60.867607 
	C57.553944,60.867607 40.159363,60.867607 22.284222,60.342575 
	C20.035793,55.741188 17.038113,51.935146 19.237211,47.022102 
	C19.479231,47.004147 19.962652,47.054348 20.001213,47.376633 
	C20.714954,48.474907 21.390135,49.250893 22.024017,50.401676 
	C21.847395,53.172962 20.008936,55.827194 23.274353,58.096268 
	C24.139013,58.624874 24.766144,58.955105 25.394218,58.956917 
	C39.025150,58.996159 52.656250,59.016705 66.287056,58.967468 
	C67.178154,58.964252 68.067123,58.372341 69.294579,57.918137 
	C71.024025,57.494984 72.415985,57.207954 73.807953,56.920925 
z"/>
<path fill="#18181D" opacity="1.000000" stroke="none" 
	d="
M18.995192,47.040054 
	C17.038113,51.935146 20.035793,55.741188 21.904144,60.191307 
	C16.520653,59.467628 16.947399,54.344215 16.014616,50.744942 
	C14.020640,43.050903 12.946790,35.117428 11.552220,27.272045 
	C11.485624,26.897396 11.959394,26.426693 12.893215,26.064312 
	C14.729937,26.734406 15.854963,27.340912 17.005306,28.310970 
	C17.060858,29.159328 17.091097,29.644135 16.914986,30.394861 
	C16.532503,31.459747 16.356367,32.258713 16.122763,33.484142 
	C16.713470,37.268234 17.361645,40.625870 18.060726,44.244698 
	C18.147715,44.679585 18.183798,44.853283 18.150160,45.275352 
	C18.103403,45.694164 18.126368,45.864605 18.154247,46.284096 
	C18.368992,46.815639 18.647667,46.984608 18.995192,47.040054 
z"/>
<path fill="#6CC956" opacity="1.000000" stroke="none" 
	d="
M16.180233,33.057682 
	C16.356367,32.258713 16.532503,31.459747 17.256762,30.273277 
	C19.162861,29.301937 20.840063,27.889818 21.826500,28.269997 
	C27.791534,30.568968 30.559122,26.198624 34.295422,22.976974 
	C35.783825,22.683607 36.901867,22.375158 38.272480,22.013529 
	C38.691105,21.915264 38.857166,21.870182 39.254478,21.897690 
	C39.485733,21.970284 39.958950,22.075447 40.003578,22.361362 
	C40.708565,22.777876 41.368916,22.908472 42.276115,23.035009 
	C42.522957,23.030951 43.004749,23.138983 43.068520,23.467880 
	C43.865021,24.152269 44.597752,24.507761 45.719776,24.881010 
	C49.293461,23.531023 52.477848,22.163279 55.954254,20.965298 
	C56.495403,21.733402 56.744534,22.331743 56.993668,22.930082 
	C56.703705,23.178411 56.413742,23.426743 55.766308,24.010235 
	C54.991871,24.583183 54.574902,24.820965 53.832062,25.071495 
	C53.005310,25.677198 52.504433,26.270157 51.624832,26.938423 
	C49.499317,27.306181 47.752522,27.598629 45.952156,27.582619 
	C44.939850,27.138693 43.981117,27.003223 42.768238,26.909126 
	C42.344414,26.924429 42.174744,26.898361 41.950493,26.560505 
	C40.922733,26.144716 39.949554,26.040718 38.732933,25.948544 
	C38.489494,25.960367 38.011711,25.863773 37.941864,25.531101 
	C36.589924,25.180012 35.307831,25.161592 33.897633,25.422342 
	C33.479450,26.448013 33.189369,27.194513 32.613060,28.128736 
	C29.897465,29.853477 27.468100,31.390497 25.021755,32.964211 
	C25.004774,33.000908 25.065483,32.948124 24.907707,32.633068 
	C21.893366,32.564568 19.036800,32.811127 16.180233,33.057682 
z"/>
<path fill="#7A7468" opacity="1.000000" stroke="none" 
	d="
M43.851498,70.260178 
	C46.354378,72.588196 44.993999,73.847687 42.481670,73.903015 
	C34.345196,74.082199 26.200375,74.051872 18.065292,73.845337 
	C17.305117,73.826035 16.591049,71.990616 16.299662,70.535881 
	C19.792620,70.096825 22.841488,70.120308 26.196980,70.410522 
	C28.997606,70.754623 31.491611,70.831985 34.425903,70.945892 
	C37.861294,70.741684 40.856396,70.500931 43.851498,70.260178 
z"/>
<path fill="#78BAF2" opacity="1.000000" stroke="none" 
	d="
M16.979990,27.947418 
	C15.854963,27.340912 14.729937,26.734406 13.275349,25.985065 
	C12.930196,25.243559 12.914602,24.644886 12.940783,23.464207 
	C12.999631,22.694103 13.016707,22.506004 13.344038,22.163559 
	C13.812668,21.353340 13.971045,20.697472 14.313194,19.944344 
	C14.733652,19.689098 14.913732,19.481911 15.398212,19.183193 
	C16.483839,19.170959 17.208456,19.201050 18.265125,19.451410 
	C22.152992,20.461269 25.708809,21.250860 29.102211,22.384560 
	C26.719898,23.787071 24.522223,24.895878 22.272911,25.887564 
	C20.542284,26.650570 18.746693,27.266235 16.979990,27.947418 
z"/>
<path fill="#5DAAEB" opacity="1.000000" stroke="none" 
	d="
M42.005070,26.872295 
	C42.174744,26.898361 42.344414,26.924429 43.062134,27.057087 
	C44.408695,27.406141 45.207214,27.648609 46.005730,27.891075 
	C47.752522,27.598629 49.499317,27.306181 51.925934,26.921902 
	C53.123146,26.239628 53.640541,25.649187 54.157936,25.058746 
	C54.574902,24.820965 54.991871,24.583183 55.635742,24.269678 
	C55.987541,25.803148 56.112431,27.412340 56.155117,29.762970 
	C56.039169,31.332460 56.005424,32.160511 55.728394,33.009243 
	C55.485107,33.029926 55.000561,33.094097 54.665436,33.024231 
	C53.879406,32.883232 53.428509,32.812103 52.700527,32.514565 
	C45.915394,30.839111 39.407341,29.390064 32.899288,27.941015 
	C33.189369,27.194513 33.479450,26.448013 34.244041,25.377930 
	C35.816269,25.324158 36.913990,25.593966 38.011711,25.863773 
	C38.011711,25.863773 38.489494,25.960367 39.013668,26.123619 
	C40.360252,26.482012 41.182659,26.677155 42.005070,26.872295 
z"/>
<path fill="#857F74" opacity="1.000000" stroke="none" 
	d="
M74.044876,56.800377 
	C72.415985,57.207954 71.024025,57.494984 69.009537,57.864548 
	C68.199348,57.899860 68.011696,57.852638 67.697708,57.572819 
	C67.068001,57.189785 66.564629,57.039345 66.090080,56.630096 
	C66.170166,56.205425 66.221436,56.039562 66.483368,55.614441 
	C66.749268,54.260357 66.804489,53.165535 66.897865,51.633499 
	C66.950706,49.440388 66.965401,47.684483 66.980095,45.928581 
	C67.814987,44.906254 68.649879,43.883926 69.484772,42.861599 
	C70.249535,44.021023 71.445557,45.098686 71.684265,46.357841 
	C72.108429,48.595150 71.738792,50.980537 72.139153,53.225895 
	C72.310707,54.188065 73.583588,54.950775 74.343941,55.814777 
	C74.444695,55.929260 74.531761,56.111942 74.519684,56.254066 
	C74.507133,56.401661 74.366455,56.538364 74.044876,56.800377 
z"/>
<path fill="#1A251B" opacity="1.000000" stroke="none" 
	d="
M55.662239,20.795532 
	C52.477848,22.163279 49.293461,23.531023 45.579163,24.584431 
	C44.935574,23.848341 44.821896,23.426586 45.118446,22.946194 
	C48.044483,21.548182 50.560287,20.208807 53.109703,18.735783 
	C53.143314,18.602131 53.103725,18.329010 53.449123,18.281368 
	C54.227787,18.086397 54.661057,17.939068 55.094322,17.791737 
	C58.576630,15.631638 62.058937,13.471540 66.130630,11.092132 
	C66.614693,11.777973 66.850990,13.113145 66.345573,13.514670 
	C64.019974,15.362210 61.487400,16.949223 58.762817,18.697647 
	C57.551788,19.442245 56.607014,20.118887 55.662239,20.795532 
z"/>
<path fill="#6ECC58" opacity="1.000000" stroke="none" 
	d="
M59.029076,18.629694 
	C61.487400,16.949223 64.019974,15.362210 66.345573,13.514670 
	C66.850990,13.113145 66.614693,11.777973 66.373367,10.839724 
	C65.345810,8.577789 66.259399,7.662869 68.461304,7.989865 
	C70.502991,8.293068 72.525940,8.722563 75.355980,9.243490 
	C74.525795,11.269206 73.889824,12.821039 72.660385,14.690734 
	C70.987091,15.024834 69.907265,15.041073 68.827431,15.057312 
	C68.417641,15.335002 68.007851,15.612694 67.035538,15.983791 
	C65.981354,16.677830 65.489700,17.278461 64.998055,17.879093 
	C64.998055,17.879095 64.569763,17.985931 63.925743,18.042046 
	C61.864178,18.275339 60.446625,18.452517 59.029076,18.629694 
z"/>
<path fill="#444451" opacity="1.000000" stroke="none" 
	d="
M11.226046,17.869020 
	C12.063178,17.213289 12.899258,15.988457 13.737598,15.986908 
	C27.019880,15.962358 40.302456,16.094730 53.313461,16.591019 
	C39.559418,17.142954 26.076880,17.295053 12.365861,17.507191 
	C11.839030,17.684214 11.535253,17.784811 11.226046,17.869020 
z"/>
<path fill="#9896D3" opacity="1.000000" stroke="none" 
	d="
M12.594341,17.447151 
	C26.076880,17.295053 39.559418,17.142954 53.508934,16.980965 
	C54.321938,16.986061 54.622219,17.110992 54.985542,17.568802 
	C54.661057,17.939068 54.227787,18.086397 52.988102,18.150211 
	C39.154472,18.085052 26.127264,18.103407 12.972719,17.953789 
	C12.845386,17.785814 12.594341,17.447151 12.594341,17.447151 
z"/>
<path fill="#8C7549" opacity="1.000000" stroke="none" 
	d="
M36.123173,66.797234 
	C38.363064,66.797234 40.602955,66.797234 43.223171,66.797234 
	C42.781769,67.738258 42.408062,68.534966 41.648026,69.652771 
	C40.793541,69.944305 40.325394,69.914749 39.638988,69.586502 
	C37.679165,69.170158 35.937595,69.052490 34.261040,68.695045 
	C34.610035,68.045723 34.894012,67.636185 35.422607,67.137619 
	C35.819214,66.964798 35.971195,66.881012 36.123173,66.797234 
z"/>
<path fill="#68BE53" opacity="1.000000" stroke="none" 
	d="
M58.762817,18.697647 
	C60.446625,18.452517 61.864178,18.275339 63.706833,18.070185 
	C61.985203,19.693501 59.838459,21.344791 57.342690,22.963083 
	C56.744534,22.331743 56.495403,21.733402 55.954254,20.965298 
	C56.607014,20.118887 57.551788,19.442245 58.762817,18.697647 
z"/>
<path fill="#8684A8" opacity="1.000000" stroke="none" 
	d="
M59.546535,39.824310 
	C59.783630,41.760914 60.020725,43.697521 59.714058,45.800270 
	C58.775646,45.884830 58.380989,45.803249 58.005196,45.650490 
	C58.024059,45.579311 58.044807,45.433506 58.071163,44.965343 
	C58.122131,42.986290 58.146744,41.475395 58.516106,39.938835 
	C59.089417,39.883545 59.317978,39.853928 59.546535,39.824310 
z"/>
<path fill="#ECBE62" opacity="1.000000" stroke="none" 
	d="
M25.890358,70.143791 
	C22.841488,70.120308 19.792620,70.096825 16.280663,70.105217 
	C15.817575,70.137093 15.393074,70.090851 15.245221,69.709511 
	C15.234792,68.956161 15.372215,68.584152 15.765280,68.272110 
	C16.369776,68.306000 16.718632,68.279907 17.352087,68.519493 
	C20.113340,68.820496 22.589994,68.855812 25.263496,68.970383 
	C25.460342,69.049629 25.863115,69.183388 25.888241,69.360947 
	C25.913364,69.538498 26.018530,69.882439 26.004955,69.956833 
	C25.991379,70.031227 25.890358,70.143791 25.890358,70.143791 
z"/>
<path fill="#534936" opacity="1.000000" stroke="none" 
	d="
M16.932003,65.204620 
	C20.165871,65.192200 23.399738,65.179787 26.801891,65.585144 
	C26.970179,66.002930 26.996334,65.972443 26.542580,65.972031 
	C23.059313,65.985466 20.029799,65.999313 16.933540,65.815216 
	C16.866796,65.617279 16.932003,65.204620 16.932003,65.204620 
z"/>
<path fill="#514327" opacity="1.000000" stroke="none" 
	d="
M39.857243,69.885193 
	C40.325394,69.914749 40.793541,69.944305 41.610260,69.943481 
	C42.385174,69.965019 42.811512,70.016937 43.544678,70.164520 
	C40.856396,70.500931 37.861294,70.741684 34.453751,70.748177 
	C34.041313,70.513916 34.092770,70.116852 34.497581,70.063972 
	C36.554008,69.969131 38.205627,69.927162 39.857243,69.885193 
z"/>
<path fill="#0C0A05" opacity="1.000000" stroke="none" 
	d="
M16.559269,65.132370 
	C16.932003,65.204620 16.866796,65.617279 16.900454,66.052467 
	C16.934111,66.487656 17.076195,66.945374 17.023956,67.272156 
	C17.003643,67.817230 17.035566,68.035522 17.067488,68.253815 
	C16.718632,68.279907 16.369776,68.306000 15.367942,68.203415 
	C14.447737,68.051788 14.180510,68.028824 13.913281,68.005859 
	C14.671033,67.023941 15.428785,66.042030 16.559269,65.132370 
z"/>
<path fill="#F4A905" opacity="1.000000" stroke="none" 
	d="
M35.862793,66.471756 
	C35.971195,66.881012 35.819214,66.964798 34.967072,67.066208 
	C31.877890,67.116409 29.488865,67.148987 27.073660,67.108612 
	C27.047480,67.035652 27.015648,66.883934 27.027809,66.655701 
	C27.039968,66.427475 26.996334,65.972443 26.996334,65.972443 
	C26.996334,65.972443 26.970179,66.002930 26.960989,65.983475 
	C29.835337,66.024765 32.718872,66.085526 35.862793,66.471756 
z"/>
<path fill="#9896D3" opacity="1.000000" stroke="none" 
	d="
M11.143414,18.239853 
	C11.535253,17.784811 11.839030,17.684214 12.365861,17.507191 
	C12.594341,17.447151 12.845386,17.785814 12.832103,18.273243 
	C12.890475,19.946415 12.962130,21.132162 13.033785,22.317907 
	C13.016707,22.506004 12.999631,22.694103 12.938353,23.164316 
	C9.138499,23.026697 10.809155,20.549692 11.143414,18.239853 
z"/>
<path fill="#59587D" opacity="1.000000" stroke="none" 
	d="
M57.986332,45.721668 
	C58.380989,45.803249 58.775646,45.884830 59.472328,45.972321 
	C60.202209,46.755962 60.630058,47.533695 61.004272,48.607620 
	C60.950638,48.903805 60.745167,48.947243 60.413429,48.985752 
	C59.634521,49.066780 59.187355,49.109295 58.540947,49.088570 
	C58.341705,49.025326 57.950405,48.878132 57.952179,48.589237 
	C57.968872,47.917282 57.983784,47.534225 57.991554,46.793823 
	C57.985054,46.198212 57.985695,45.959938 57.986332,45.721668 
z"/>
<path fill="#8382A3" opacity="1.000000" stroke="none" 
	d="
M59.490036,39.630188 
	C59.317978,39.853928 59.089417,39.883545 58.221912,39.936153 
	C57.388454,39.975853 57.193943,39.992569 57.003937,39.590881 
	C57.004963,37.781811 57.001488,36.391140 57.217400,34.890411 
	C57.707893,34.543953 57.818592,34.247578 57.901001,33.879189 
	C58.033112,33.867149 58.270969,33.984695 58.270969,33.984695 
	C58.500072,34.484192 58.729176,34.983692 58.658199,35.960819 
	C58.619579,37.344078 58.881042,38.249710 59.142506,39.155338 
	C59.142506,39.155338 59.433537,39.436062 59.490036,39.630188 
z"/>
<path fill="#5F4C22" opacity="1.000000" stroke="none" 
	d="
M66.684402,46.088409 
	C66.965401,47.684483 66.950706,49.440388 66.675415,51.602707 
	C66.414818,52.009121 65.968491,51.953499 65.894775,51.664314 
	C65.577469,50.837139 65.333878,50.299149 65.090286,49.761162 
	C65.523094,48.590187 65.955902,47.419212 66.684402,46.088409 
z"/>
<path fill="#717190" opacity="1.000000" stroke="none" 
	d="
M64.917854,49.487358 
	C65.333878,50.299149 65.577469,50.837139 65.668411,51.801796 
	C65.283936,52.488224 65.052116,52.747986 64.648819,52.908237 
	C64.264397,52.642994 64.098213,52.439129 63.990807,51.878075 
	C63.990650,51.346523 63.978504,51.134018 63.866905,50.657696 
	C63.492809,49.909142 63.218170,49.424400 62.943535,48.939659 
	C63.544163,49.030956 64.144791,49.122253 64.917854,49.487358 
z"/>
<path fill="#68BE53" opacity="1.000000" stroke="none" 
	d="
M68.969475,15.367858 
	C69.907265,15.041073 70.987091,15.024834 72.471375,15.006849 
	C72.087440,17.837034 70.710899,17.380659 68.969475,15.367858 
z"/>
<path fill="#8A89A9" opacity="1.000000" stroke="none" 
	d="
M55.971684,32.988560 
	C56.005424,32.160511 56.039169,31.332460 56.098034,30.088013 
	C56.740051,29.949800 57.356945,30.227987 57.683392,30.936810 
	C57.262764,31.914576 57.132584,32.461708 56.744423,33.018425 
	C56.314857,33.014854 56.143272,33.001709 55.971684,32.988560 
z"/>
<path fill="#8281B5" opacity="1.000000" stroke="none" 
	d="
M62.643433,48.953911 
	C63.218170,49.424400 63.492809,49.909142 63.528946,50.628513 
	C62.442020,50.224510 61.593594,49.585876 60.745167,48.947243 
	C60.745167,48.947243 60.950638,48.903805 61.046268,48.947136 
	C61.542377,48.983032 61.942852,48.975597 62.643433,48.953911 
z"/>
<path fill="#68BE53" opacity="1.000000" stroke="none" 
	d="
M65.312714,17.908279 
	C65.489700,17.278461 65.981354,16.677830 66.795914,16.058350 
	C66.621666,16.672157 66.124512,17.304811 65.312714,17.908279 
z"/>
<path fill="#5C5C6D" opacity="1.000000" stroke="none" 
	d="
M57.002403,33.008842 
	C57.132584,32.461708 57.262764,31.914576 57.632996,31.213358 
	C57.971672,31.790699 58.070293,32.522125 58.219944,33.619125 
	C58.270969,33.984695 58.033112,33.867149 57.725014,33.783775 
	C57.216465,33.507256 57.078293,33.276737 57.002403,33.008842 
z"/>
<path fill="#5A596A" opacity="1.000000" stroke="none" 
	d="
M59.141167,38.764824 
	C58.881042,38.249710 58.619579,37.344078 58.611969,36.246643 
	C58.957157,36.827995 59.048492,37.601151 59.141167,38.764824 
z"/>
<path fill="#181510" opacity="1.000000" stroke="none" 
	d="
M13.824365,68.333557 
	C14.180510,68.028824 14.447737,68.051788 15.112302,68.143448 
	C15.372215,68.584152 15.234792,68.956161 15.050966,69.620911 
	C14.581526,69.496185 14.158486,69.078712 13.824365,68.333557 
z"/>
<path fill="#37375E" opacity="1.000000" stroke="none" 
	d="
M67.824036,57.805412 
	C68.011696,57.852638 68.199348,57.899860 68.672050,58.000671 
	C68.067123,58.372341 67.178154,58.964252 66.287056,58.967468 
	C52.656250,59.016705 39.025150,58.996159 25.394218,58.956917 
	C24.766144,58.955105 24.139013,58.624874 23.704483,58.181175 
	C25.932899,57.898739 27.968279,57.882732 30.466633,57.932686 
	C38.626961,57.939774 46.324318,57.880905 54.477657,57.878677 
	C58.612583,57.878288 62.291531,57.821255 66.276169,57.822029 
	C66.995926,57.855030 67.409981,57.830223 67.824036,57.805412 
z"/>
<path fill="#7E7DB0" opacity="1.000000" stroke="none" 
	d="
M58.005196,45.650490 
	C57.985695,45.959938 57.985054,46.198212 57.586922,46.790760 
	C46.176952,47.191566 35.164471,47.238098 23.739933,47.202106 
	C22.206135,47.097836 21.084394,47.076092 19.962652,47.054348 
	C19.962652,47.054348 19.479231,47.004147 19.237211,47.022102 
	C18.647667,46.984608 18.368992,46.815639 18.611771,46.272232 
	C29.971968,46.007393 40.879848,46.042053 51.786850,45.960014 
	C53.522476,45.946964 55.254158,45.409416 57.009293,45.092041 
	C57.030926,45.069729 56.993465,45.020130 57.267906,45.093960 
	C57.709831,45.256363 57.877319,45.344933 58.044807,45.433506 
	C58.044807,45.433506 58.024059,45.579311 58.005196,45.650490 
z"/>
<path fill="#DADBFA" opacity="1.000000" stroke="none" 
	d="
M30.003658,57.866722 
	C27.968279,57.882732 25.932899,57.898739 23.467390,57.829842 
	C20.008936,55.827194 21.847395,53.172962 22.285938,50.491501 
	C23.033672,50.525959 23.478193,50.845394 23.956455,51.353867 
	C23.990196,51.542904 24.134871,51.898670 24.109655,52.273407 
	C26.354383,53.818012 28.624327,54.987877 30.809757,56.384567 
	C30.484713,57.029835 30.244184,57.448277 30.003658,57.866722 
z"/>
<path fill="#59587D" opacity="1.000000" stroke="none" 
	d="
M23.922712,51.164825 
	C23.478193,50.845394 23.033672,50.525959 22.327234,50.116707 
	C21.390135,49.250893 20.714954,48.474907 20.001213,47.376633 
	C21.084394,47.076092 22.206135,47.097836 23.698708,47.582817 
	C24.020597,49.085648 23.971655,50.125237 23.922712,51.164825 
z"/>
<path fill="#75BCF6" opacity="1.000000" stroke="none" 
	d="
M32.613060,28.128736 
	C39.407341,29.390064 45.915394,30.839111 52.699211,32.957119 
	C52.966484,35.072273 52.957993,36.518471 52.968594,37.979561 
	C52.987682,37.994457 53.000214,37.952126 52.681961,38.132095 
	C52.551563,39.847904 52.739422,41.383743 53.307560,42.948990 
	C54.449951,42.980534 55.212067,42.982666 56.201378,42.990307 
	C56.428574,42.995819 56.882027,43.027130 56.934242,43.240387 
	C56.986454,43.453648 56.921886,43.887993 56.460426,43.936684 
	C43.335922,43.984749 30.672871,43.984123 18.009819,43.983501 
	C17.361645,40.625870 16.713470,37.268234 16.122765,33.484142 
	C19.036800,32.811127 21.893366,32.564568 24.583351,32.785915 
	C23.703899,34.154240 22.991028,35.054661 22.278156,35.955082 
	C22.789886,36.220749 23.301617,36.486416 23.813349,36.752079 
	C24.203999,35.799568 24.617119,34.855309 24.971605,33.889526 
	C25.077990,33.599689 25.020922,33.249863 25.038734,32.927517 
	C27.468100,31.390497 29.897465,29.853477 32.613060,28.128736 
M21.432945,38.280964 
	C21.432945,39.735985 21.432945,41.191006 21.432945,42.646027 
	C21.796532,42.714706 22.160118,42.783382 22.523705,42.852062 
	C22.978331,41.938755 23.432955,41.025452 23.775534,39.533062 
	C23.216236,39.007019 22.656937,38.480976 21.432945,38.280964 
M48.522030,38.456512 
	C47.797451,36.708927 47.072868,34.961342 46.348289,33.213757 
	C45.845913,33.225292 45.343536,33.236828 44.841160,33.248360 
	C44.598869,36.090824 44.138519,38.946106 44.304169,41.764591 
	C44.336071,42.307400 46.822292,42.705963 48.376041,43.239681 
	C48.376041,41.370621 48.376041,40.250160 48.522030,38.456512 
M33.481606,34.631470 
	C34.334648,35.389423 35.187695,36.147377 36.040737,36.905327 
	C36.326115,36.432003 36.611492,35.958679 36.896870,35.485359 
	C35.921993,35.061680 34.947117,34.638000 33.481606,34.631470 
M36.179436,41.889404 
	C36.490685,40.961311 36.801937,40.033218 37.113186,39.105125 
	C36.757298,39.015297 36.401413,38.925468 36.045525,38.835640 
	C36.045525,39.636417 36.045525,40.437195 36.179436,41.889404 
z"/>
<path fill="#1B2E34" opacity="1.000000" stroke="none" 
	d="
M17.005306,28.310970 
	C18.746693,27.266235 20.542284,26.650570 22.272911,25.887564 
	C24.522223,24.895878 26.719898,23.787071 29.388596,22.274609 
	C31.277441,21.592409 32.717491,21.364271 34.130108,21.442999 
	C34.043472,22.153875 33.984268,22.557886 33.925064,22.961897 
	C30.559122,26.198624 27.791534,30.568968 21.826500,28.269997 
	C20.840063,27.889818 19.162861,29.301937 17.463110,30.007359 
	C17.091097,29.644135 17.060858,29.159328 17.005306,28.310970 
z"/>
<path fill="#3F6C8F" opacity="1.000000" stroke="none" 
	d="
M18.060726,44.244698 
	C30.672871,43.984123 43.335922,43.984749 56.479057,44.219727 
	C56.970581,44.642765 56.982025,44.831448 56.993465,45.020130 
	C56.993465,45.020130 57.030926,45.069729 56.544289,45.051437 
	C43.445061,45.031094 30.832472,45.029034 18.219881,45.026978 
	C18.183798,44.853283 18.147715,44.679585 18.060726,44.244698 
z"/>
<path fill="#6C6A96" opacity="1.000000" stroke="none" 
	d="
M18.150160,45.275352 
	C30.832472,45.029034 43.445061,45.031094 56.522659,45.073753 
	C55.254158,45.409416 53.522476,45.946964 51.786850,45.960014 
	C40.879848,46.042053 29.971968,46.007393 18.606855,46.023182 
	C18.126368,45.864605 18.103403,45.694164 18.150160,45.275352 
z"/>
<path fill="#66ACE3" opacity="1.000000" stroke="none" 
	d="
M53.076092,18.869434 
	C50.560287,20.208807 48.044483,21.548182 44.834099,22.920752 
	C43.761265,23.015627 43.383007,23.077305 43.004749,23.138983 
	C43.004749,23.138983 42.522957,23.030951 42.030006,22.869728 
	C41.011021,22.497486 40.484985,22.286467 39.958950,22.075447 
	C39.958950,22.075447 39.485733,21.970284 39.214027,21.611515 
	C38.304310,20.561138 37.666298,19.869528 37.490753,19.126129 
	C42.994175,19.006039 48.035133,18.937735 53.076092,18.869434 
z"/>
<path fill="#5C9DCF" opacity="1.000000" stroke="none" 
	d="
M37.028286,19.177917 
	C37.666298,19.869528 38.304310,20.561138 38.982773,21.538923 
	C38.857166,21.870182 38.691105,21.915264 37.978828,21.823441 
	C36.340919,21.503069 35.249229,21.319601 34.157539,21.136133 
	C32.717491,21.364271 31.277441,21.592409 29.551008,21.930498 
	C25.708809,21.250860 22.152992,20.461269 18.730904,19.359287 
	C24.919182,19.090569 30.973734,19.134243 37.028286,19.177917 
z"/>
<path fill="#68BE53" opacity="1.000000" stroke="none" 
	d="
M34.130108,21.442999 
	C35.249229,21.319601 36.340919,21.503069 37.726261,21.876625 
	C36.901867,22.375158 35.783825,22.683607 34.295422,22.976974 
	C33.984268,22.557886 34.043472,22.153875 34.130108,21.442999 
z"/>
<path fill="#68BE53" opacity="1.000000" stroke="none" 
	d="
M45.952156,27.582619 
	C45.207214,27.648609 44.408695,27.406141 43.316284,27.015713 
	C43.981117,27.003223 44.939850,27.138693 45.952156,27.582619 
z"/>
<path fill="#68BE53" opacity="1.000000" stroke="none" 
	d="
M41.950493,26.560505 
	C41.182659,26.677155 40.360252,26.482012 39.257111,26.111794 
	C39.949554,26.040718 40.922733,26.144716 41.950493,26.560505 
z"/>
<path fill="#68BE53" opacity="1.000000" stroke="none" 
	d="
M37.941864,25.531101 
	C36.913990,25.593966 35.816269,25.324158 34.372139,25.098763 
	C35.307831,25.161592 36.589924,25.180012 37.941864,25.531101 
z"/>
<path fill="#68BE53" opacity="1.000000" stroke="none" 
	d="
M43.068520,23.467880 
	C43.383007,23.077305 43.761265,23.015627 44.423870,22.979389 
	C44.821896,23.426586 44.935574,23.848341 45.189869,24.566673 
	C44.597752,24.507761 43.865021,24.152269 43.068520,23.467880 
z"/>
<path fill="#68BE53" opacity="1.000000" stroke="none" 
	d="
M53.832062,25.071495 
	C53.640541,25.649187 53.123146,26.239628 52.304657,26.846592 
	C52.504433,26.270157 53.005310,25.677198 53.832062,25.071495 
z"/>
<path fill="#68BE53" opacity="1.000000" stroke="none" 
	d="
M40.003578,22.361362 
	C40.484985,22.286467 41.011021,22.497486 41.783165,22.873787 
	C41.368916,22.908472 40.708565,22.777876 40.003578,22.361362 
z"/>
<path fill="#573D05" opacity="1.000000" stroke="none" 
	d="
M34.092770,70.116852 
	C34.092770,70.116852 34.041313,70.513916 34.013466,70.711632 
	C31.491611,70.831985 28.997606,70.754623 26.196980,70.410522 
	C25.890358,70.143791 25.991379,70.031227 26.447357,70.003494 
	C29.295099,69.926956 31.686863,69.878159 34.089294,69.900879 
	C34.099960,69.972404 34.092770,70.116852 34.092770,70.116852 
z"/>
<path fill="#303B51" opacity="1.000000" stroke="none" 
	d="
M37.490753,19.126129 
	C30.973734,19.134243 24.919182,19.090569 18.398851,19.139015 
	C17.208456,19.201050 16.483839,19.170959 15.136842,19.157948 
	C14.386115,19.463886 14.257769,19.752743 14.129422,20.041601 
	C13.971045,20.697472 13.812668,21.353340 13.344038,22.163559 
	C12.962130,21.132162 12.890475,19.946415 12.959436,18.441216 
	C26.127264,18.103407 39.154472,18.085052 52.642704,18.197853 
	C53.103725,18.329010 53.143314,18.602131 53.109703,18.735783 
	C48.035133,18.937735 42.994175,19.006039 37.490753,19.126129 
z"/>
<path fill="#5C9DCF" opacity="1.000000" stroke="none" 
	d="
M14.313192,19.944344 
	C14.257769,19.752743 14.386115,19.463886 14.775831,19.200274 
	C14.913732,19.481911 14.733652,19.689098 14.313192,19.944344 
z"/>
<path fill="#D4E1FD" opacity="1.000000" stroke="none" 
	d="
M52.949505,37.964664 
	C52.957993,36.518471 52.966484,35.072273 52.976288,33.183525 
	C53.428509,32.812103 53.879406,32.883232 54.637844,33.336182 
	C54.995411,34.134605 55.045441,34.551212 55.061081,35.381275 
	C55.002968,37.178226 54.979248,38.561714 54.712349,39.791855 
	C53.962616,39.080563 53.456059,38.522614 52.949505,37.964664 
z"/>
<path fill="#57688F" opacity="1.000000" stroke="none" 
	d="
M55.095467,34.967815 
	C55.045441,34.551212 54.995411,34.134605 54.972969,33.406052 
	C55.000561,33.094097 55.485107,33.029926 55.728394,33.009243 
	C56.143272,33.001709 56.314857,33.014854 56.744423,33.018425 
	C57.078293,33.276737 57.216465,33.507256 57.592899,33.795815 
	C57.818592,34.247578 57.707893,34.543953 56.927872,34.895573 
	C56.225952,35.017376 56.032948,35.023960 55.652809,35.026932 
	C55.465672,35.023312 55.095467,34.967815 55.095467,34.967815 
z"/>
<path fill="#B6B4FE" opacity="1.000000" stroke="none" 
	d="
M65.970474,57.764221 
	C62.291531,57.821255 58.612583,57.878288 54.462372,57.649124 
	C53.991108,57.362930 53.961700,56.903721 53.858223,56.680153 
	C53.484081,56.039036 53.213425,55.621487 53.383179,55.134232 
	C55.290230,54.905163 56.756863,54.745796 58.483047,54.607773 
	C59.089382,54.615417 59.436165,54.601727 60.201309,54.737564 
	C62.392712,54.951294 64.165749,55.015491 66.027679,55.275917 
	C66.116570,55.472141 66.272697,55.873699 66.272697,55.873699 
	C66.221436,56.039562 66.170166,56.205425 66.055656,56.847984 
	C65.992409,57.324680 65.970474,57.764221 65.970474,57.764221 
z"/>
<path fill="#463E37" opacity="1.000000" stroke="none" 
	d="
M66.483368,55.614441 
	C66.272697,55.873699 66.116570,55.472141 65.972290,55.027405 
	C65.568733,54.374226 65.309456,54.165783 65.013626,53.714882 
	C64.977074,53.472416 64.820290,53.007744 64.820290,53.007744 
	C65.052116,52.747986 65.283936,52.488224 65.742126,52.090981 
	C65.968491,51.953499 66.414818,52.009121 66.637268,52.039917 
	C66.804489,53.165535 66.749268,54.260357 66.483368,55.614441 
z"/>
<path fill="#A9A7EA" opacity="1.000000" stroke="none" 
	d="
M66.276169,57.822029 
	C65.970474,57.764221 65.992409,57.324680 66.026833,57.106789 
	C66.564629,57.039345 67.068001,57.189785 67.697708,57.572823 
	C67.409981,57.830223 66.995926,57.855030 66.276169,57.822029 
z"/>
<path fill="#976904" opacity="1.000000" stroke="none" 
	d="
M27.099840,67.181572 
	C29.488865,67.148987 31.877890,67.116409 34.722450,67.155235 
	C34.894012,67.636185 34.610035,68.045723 34.223122,68.752975 
	C34.120182,69.050690 34.054615,69.169334 33.604790,69.115646 
	C30.724348,69.102440 28.293732,69.142914 25.863115,69.183388 
	C25.863115,69.183388 25.460342,69.049629 25.417267,68.752167 
	C25.949408,68.030327 26.524624,67.605949 27.099840,67.181572 
z"/>
<path fill="#EDBF64" opacity="1.000000" stroke="none" 
	d="
M39.638988,69.586510 
	C38.205627,69.927162 36.554008,69.969131 34.497581,70.063972 
	C34.092770,70.116852 34.099960,69.972404 34.083637,69.735878 
	C34.067314,69.499352 34.054615,69.169334 34.054615,69.169334 
	C34.054615,69.169334 34.120182,69.050690 34.158104,68.992752 
	C35.937595,69.052490 37.679165,69.170158 39.638988,69.586510 
z"/>
<path fill="#334660" opacity="1.000000" stroke="none" 
	d="
M57.267906,45.093960 
	C56.982025,44.831448 56.970581,44.642765 56.940514,44.171036 
	C56.921886,43.887993 56.986454,43.453648 56.971802,42.862335 
	C56.974197,41.513130 56.991249,40.755238 57.004128,39.998531 
	C56.999954,39.999718 56.999432,40.009281 56.999432,40.009281 
	C57.193943,39.992569 57.388454,39.975853 57.877163,39.961823 
	C58.146744,41.475395 58.122131,42.986290 58.071163,44.965343 
	C57.877319,45.344933 57.709831,45.256363 57.267906,45.093960 
z"/>
<path fill="#8F743E" opacity="1.000000" stroke="none" 
	d="
M27.073660,67.108612 
	C26.524624,67.605949 25.949408,68.030327 25.220421,68.672920 
	C22.589994,68.855812 20.113340,68.820496 17.352087,68.519501 
	C17.035566,68.035522 17.003643,67.817230 17.472889,67.292007 
	C20.987921,66.951363 24.001785,66.917648 27.015648,66.883942 
	C27.015648,66.883934 27.047480,67.035652 27.073660,67.108612 
z"/>
<path fill="#F1A601" opacity="1.000000" stroke="none" 
	d="
M33.604790,69.115646 
	C34.054615,69.169334 34.067314,69.499352 34.072968,69.664352 
	C31.686863,69.878159 29.295099,69.926956 26.460934,69.929092 
	C26.018530,69.882439 25.913364,69.538498 25.888241,69.360947 
	C28.293732,69.142914 30.724348,69.102440 33.604790,69.115646 
z"/>
<path fill="#F0C269" opacity="1.000000" stroke="none" 
	d="
M27.027809,66.655708 
	C24.001785,66.917648 20.987921,66.951363 17.525127,66.965225 
	C17.076195,66.945374 16.934111,66.487656 16.967197,66.250412 
	C20.029799,65.999313 23.059313,65.985466 26.542580,65.972031 
	C26.996334,65.972443 27.039968,66.427475 27.027809,66.655708 
z"/>
<path fill="#434252" opacity="1.000000" stroke="none" 
	d="
M23.956455,51.353867 
	C23.971655,50.125237 24.020597,49.085648 24.110764,47.665344 
	C35.164471,47.238098 46.176952,47.191566 57.594063,47.148102 
	C57.983784,47.534225 57.968872,47.917282 57.632702,48.629326 
	C56.889629,49.031544 56.467815,49.104786 55.684559,49.131203 
	C54.597103,49.073780 53.871082,49.063183 52.803066,49.047173 
	C52.233574,49.057316 52.006077,49.072872 51.506920,49.236626 
	C50.820961,50.280361 50.406658,51.175900 50.008656,52.274715 
	C50.024956,52.477993 50.046898,52.885265 49.643547,52.905945 
	C47.186516,52.649895 45.132839,52.373165 42.714607,52.063843 
	C41.863789,52.064735 41.377522,52.098221 40.662449,52.124565 
	C40.433643,52.117424 39.983879,52.031830 39.994549,51.771080 
	C40.004227,51.336582 40.003231,51.162838 39.970009,50.703186 
	C38.631821,50.582108 37.325863,50.746929 35.690548,50.922607 
	C34.670227,51.259602 33.979256,51.585747 33.122765,52.149864 
	C32.613708,52.566494 32.270176,52.745163 31.682562,52.958714 
	C31.438482,52.993599 30.954069,53.085861 30.610157,53.040691 
	C28.222454,52.629906 26.178661,52.264286 24.134871,51.898670 
	C24.134871,51.898670 23.990196,51.542904 23.956455,51.353867 
z"/>
<path fill="#A0A0AE" opacity="1.000000" stroke="none" 
	d="
M56.045998,49.178024 
	C56.467815,49.104786 56.889629,49.031544 57.630928,48.918221 
	C57.950405,48.878132 58.341705,49.025326 58.551533,49.336403 
	C58.485615,50.251270 58.209869,50.855064 57.624798,51.321995 
	C57.119110,51.295959 56.922752,51.406784 56.533493,51.491707 
	C56.063992,51.561657 55.819721,51.711002 55.503124,51.825562 
	C55.398464,51.737278 55.155937,51.864445 54.920452,51.718742 
	C54.141445,51.558788 53.597927,51.544533 53.300903,51.198418 
	C53.540867,50.591537 53.534325,50.316517 53.820927,50.110443 
	C54.758049,49.845608 55.402023,49.511818 56.045998,49.178024 
z"/>
<path fill="#6B6C76" opacity="1.000000" stroke="none" 
	d="
M57.934128,51.458858 
	C58.209869,50.855064 58.485615,50.251270 58.750771,49.399643 
	C59.187355,49.109295 59.634521,49.066780 60.413429,48.985752 
	C61.593594,49.585876 62.442020,50.224510 63.628403,50.892326 
	C63.978504,51.134018 63.990650,51.346523 63.565990,51.847733 
	C61.997017,52.107197 60.864845,52.077946 59.411156,52.027901 
	C58.704464,51.824360 58.319298,51.641609 57.934128,51.458858 
z"/>
<path fill="#364E69" opacity="1.000000" stroke="none" 
	d="
M55.839943,35.030548 
	C56.032948,35.023960 56.225952,35.017376 56.708488,35.005630 
	C57.001488,36.391140 57.004963,37.781811 57.003937,39.590881 
	C56.999432,40.009281 56.999954,39.999718 56.718220,39.758301 
	C56.237640,38.021439 56.038792,36.525993 55.839943,35.030548 
z"/>
<path fill="#868793" opacity="1.000000" stroke="none" 
	d="
M59.732674,52.048695 
	C60.864845,52.077946 61.997017,52.107197 63.554005,52.166786 
	C64.098213,52.439129 64.264397,52.642994 64.648819,52.908234 
	C64.820290,53.007744 64.977074,53.472416 64.644432,53.727310 
	C62.920303,53.649906 61.528816,53.317604 60.027603,52.754848 
	C59.856144,52.365829 59.794407,52.207260 59.732674,52.048695 
z"/>
<path fill="#A9A7EA" opacity="1.000000" stroke="none" 
	d="
M53.961700,56.903725 
	C53.961700,56.903721 53.991108,57.362930 54.006393,57.592484 
	C46.324318,57.880905 38.626961,57.939774 30.466631,57.932682 
	C30.244184,57.448277 30.484713,57.029835 31.259188,56.326370 
	C34.188553,56.015625 36.583969,55.989906 39.362450,56.135014 
	C44.484238,56.505135 49.222969,56.704430 53.961700,56.903725 
z"/>
<path fill="#706F90" opacity="1.000000" stroke="none" 
	d="
M38.979389,55.964188 
	C36.583969,55.989906 34.188553,56.015625 31.343704,56.099541 
	C28.624327,54.987877 26.354383,53.818012 24.109655,52.273407 
	C26.178661,52.264286 28.222454,52.629906 30.721184,53.198418 
	C31.426296,53.242157 31.676470,53.082993 31.926643,52.923828 
	C32.270176,52.745163 32.613708,52.566494 33.404236,52.160896 
	C34.232883,51.963951 34.614536,51.993931 34.990826,52.271210 
	C34.985466,52.518501 34.991909,53.013668 35.149017,53.241367 
	C36.155937,53.331715 37.005749,53.194363 38.008259,52.847389 
	C38.222511,52.476204 38.284065,52.314636 38.615807,52.123032 
	C39.251953,52.072601 39.617916,52.052216 39.983879,52.031830 
	C39.983879,52.031830 40.433643,52.117424 40.744595,52.399490 
	C41.730083,52.486519 42.404621,52.291477 43.079159,52.096436 
	C45.132839,52.373165 47.186516,52.649895 49.871166,53.070705 
	C50.988144,53.466511 51.474152,53.718235 52.326027,53.970566 
	C53.513245,53.268929 54.334591,52.566685 55.155937,51.864441 
	C55.155937,51.864445 55.398464,51.737278 55.610634,52.095470 
	C56.543613,52.638184 57.264427,52.822704 58.066280,53.263817 
	C58.172714,53.875748 58.198109,54.231091 58.223499,54.586433 
	C56.756863,54.745796 55.290230,54.905163 52.929859,55.061920 
	C47.683880,55.360943 43.331635,55.662567 38.979389,55.964188 
z"/>
<path fill="#B5D5FB" opacity="1.000000" stroke="none" 
	d="
M48.449036,38.793106 
	C48.376041,40.250160 48.376041,41.370621 48.376041,43.239681 
	C46.822292,42.705963 44.336071,42.307400 44.304169,41.764591 
	C44.138519,38.946106 44.598869,36.090824 44.841160,33.248360 
	C45.343536,33.236828 45.845913,33.225292 46.348289,33.213757 
	C47.072868,34.961342 47.797451,36.708927 48.449036,38.793106 
z"/>
<path fill="#D0E0FD" opacity="1.000000" stroke="none" 
	d="
M23.887581,40.112144 
	C23.432955,41.025452 22.978331,41.938755 22.523705,42.852062 
	C22.160118,42.783382 21.796532,42.714706 21.432945,42.646027 
	C21.432945,41.191006 21.432945,39.735985 21.777172,38.437225 
	C22.710127,39.099709 23.298855,39.605927 23.887581,40.112144 
z"/>
<path fill="#5FAAE5" opacity="1.000000" stroke="none" 
	d="
M55.652809,35.026932 
	C56.038792,36.525993 56.237640,38.021439 56.722393,39.757114 
	C56.991249,40.755238 56.974197,41.513130 56.919586,42.649078 
	C56.882027,43.027130 56.428574,42.995819 56.088795,42.689274 
	C55.484520,41.570221 55.220024,40.757713 54.955524,39.945206 
	C54.979248,38.561714 55.002968,37.178226 55.061081,35.381275 
	C55.095467,34.967815 55.465672,35.023312 55.652809,35.026932 
z"/>
<path fill="#9ECDFA" opacity="1.000000" stroke="none" 
	d="
M25.021755,32.964211 
	C25.020922,33.249863 25.077990,33.599689 24.971605,33.889526 
	C24.617119,34.855309 24.203999,35.799568 23.813349,36.752079 
	C23.301617,36.486416 22.789886,36.220749 22.278156,35.955082 
	C22.991028,35.054661 23.703899,34.154240 24.741127,33.100971 
	C25.065483,32.948124 25.004774,33.000908 25.021755,32.964211 
z"/>
<path fill="#52AEF4" opacity="1.000000" stroke="none" 
	d="
M33.726921,34.422897 
	C34.947117,34.638000 35.921993,35.061680 36.896870,35.485359 
	C36.611492,35.958679 36.326115,36.432003 36.040737,36.905327 
	C35.187695,36.147377 34.334648,35.389423 33.726921,34.422897 
z"/>
<path fill="#A2CEFA" opacity="1.000000" stroke="none" 
	d="
M54.712349,39.791855 
	C55.220024,40.757713 55.484520,41.570221 55.861595,42.683762 
	C55.212067,42.982666 54.449951,42.980534 53.339447,42.538963 
	C52.994106,40.717052 52.997162,39.334591 53.000214,37.952126 
	C53.000214,37.952126 52.987682,37.994457 52.968594,37.979561 
	C53.456059,38.522614 53.962616,39.080563 54.712349,39.791855 
z"/>
<path fill="#D4E1FD" opacity="1.000000" stroke="none" 
	d="
M36.112480,41.563690 
	C36.045525,40.437195 36.045525,39.636417 36.045525,38.835640 
	C36.401413,38.925468 36.757298,39.015297 37.113186,39.105125 
	C36.801937,40.033218 36.490685,40.961311 36.112480,41.563690 
z"/>
<path fill="#DDE4FE" opacity="1.000000" stroke="none" 
	d="
M52.681961,38.132095 
	C52.997162,39.334591 52.994106,40.717052 52.959167,42.509548 
	C52.739422,41.383743 52.551563,39.847904 52.681961,38.132095 
z"/>
<path fill="#9ECDFA" opacity="1.000000" stroke="none" 
	d="
M23.831558,39.822601 
	C23.298855,39.605927 22.710127,39.099709 22.109520,38.274212 
	C22.656937,38.480976 23.216236,39.007019 23.831558,39.822601 
z"/>
<path fill="#DDDDFE" opacity="1.000000" stroke="none" 
	d="
M39.362450,56.135017 
	C43.331635,55.662567 47.683880,55.360943 52.489449,55.131630 
	C53.213425,55.621487 53.484081,56.039036 53.858223,56.680153 
	C49.222969,56.704430 44.484238,56.505135 39.362450,56.135017 
z"/>
<path fill="#706F90" opacity="1.000000" stroke="none" 
	d="
M60.137329,52.985298 
	C61.528816,53.317604 62.920303,53.649906 64.680984,53.969776 
	C65.309456,54.165783 65.568733,54.374226 65.883392,54.831177 
	C64.165749,55.015491 62.392712,54.951294 60.247131,54.467648 
	C59.962173,53.693901 60.049751,53.339600 60.137329,52.985298 
z"/>
<path fill="#333337" opacity="1.000000" stroke="none" 
	d="
M60.027603,52.754845 
	C60.049751,53.339600 59.962173,53.693901 59.828773,54.318119 
	C59.436165,54.601727 59.089382,54.615417 58.483047,54.607773 
	C58.198109,54.231091 58.172714,53.875748 57.863007,52.797234 
	C57.294590,51.888577 57.010490,51.703094 56.726391,51.517612 
	C56.922752,51.406784 57.119110,51.295959 57.624802,51.321995 
	C58.319298,51.641609 58.704464,51.824360 59.411156,52.027901 
	C59.794407,52.207260 59.856144,52.365829 60.027603,52.754845 
z"/>
<path fill="#73747E" opacity="1.000000" stroke="none" 
	d="
M54.920452,51.718742 
	C54.334591,52.566685 53.513245,53.268929 52.312737,53.646336 
	C51.286499,52.904812 50.639431,52.488125 49.992355,52.071438 
	C50.406658,51.175900 50.820961,50.280361 51.590225,49.577137 
	C52.314930,50.356392 52.684666,50.943333 53.054405,51.530277 
	C53.597927,51.544533 54.141445,51.558788 54.920452,51.718742 
z"/>
<path fill="#36363B" opacity="1.000000" stroke="none" 
	d="
M36.019901,50.911755 
	C37.325863,50.746929 38.631821,50.582108 39.655952,50.692932 
	C39.031288,51.363407 38.688457,51.758240 38.345627,52.153072 
	C38.284065,52.314636 38.222511,52.476204 37.718651,52.514091 
	C37.013321,52.263161 36.750298,52.135902 36.508324,51.797478 
	C36.414680,51.319836 36.244858,51.094986 36.019901,50.911755 
z"/>
<path fill="#5E5E66" opacity="1.000000" stroke="none" 
	d="
M42.714607,52.063843 
	C42.404621,52.291477 41.730083,52.486519 40.973400,52.406631 
	C41.377522,52.098221 41.863789,52.064735 42.714607,52.063843 
z"/>
<path fill="#8B8C99" opacity="1.000000" stroke="none" 
	d="
M35.690548,50.922607 
	C36.244858,51.094986 36.414680,51.319836 36.443748,51.774971 
	C36.358124,51.963638 36.216454,51.962246 35.911423,51.978325 
	C35.402988,52.004242 35.199589,52.014076 34.996185,52.023914 
	C34.614536,51.993931 34.232883,51.963951 33.569763,51.922932 
	C33.979256,51.585747 34.670227,51.259602 35.690548,50.922607 
z"/>
<path fill="#81818C" opacity="1.000000" stroke="none" 
	d="
M55.684559,49.131203 
	C55.402023,49.511818 54.758049,49.845608 53.671417,49.884033 
	C53.200863,49.409977 53.172966,49.231281 53.145065,49.052582 
	C53.871082,49.063183 54.597103,49.073780 55.684559,49.131203 
z"/>
<path fill="#303035" opacity="1.000000" stroke="none" 
	d="
M50.008659,52.274715 
	C50.639431,52.488125 51.286499,52.904812 51.946861,53.645729 
	C51.474152,53.718235 50.988144,53.466511 50.274517,53.050026 
	C50.046898,52.885265 50.024956,52.477993 50.008659,52.274715 
z"/>
<path fill="#424349" opacity="1.000000" stroke="none" 
	d="
M52.803066,49.047173 
	C53.172966,49.231281 53.200863,49.409977 53.378265,49.815083 
	C53.534325,50.316517 53.540867,50.591537 53.300903,51.198418 
	C52.684666,50.943333 52.314930,50.356392 51.861885,49.428940 
	C52.006077,49.072872 52.233574,49.057316 52.803066,49.047173 
z"/>
<path fill="#5E5E66" opacity="1.000000" stroke="none" 
	d="
M38.615807,52.123032 
	C38.688457,51.758240 39.031288,51.363407 39.688179,50.978832 
	C40.003231,51.162838 40.004227,51.336582 39.994549,51.771080 
	C39.617916,52.052216 39.251953,52.072601 38.615807,52.123032 
z"/>
<path fill="#5F6068" opacity="1.000000" stroke="none" 
	d="
M31.682564,52.958714 
	C31.676470,53.082993 31.426296,53.242157 31.065096,53.243591 
	C30.954069,53.085861 31.438482,52.993599 31.682564,52.958714 
z"/>
<path fill="#696973" opacity="1.000000" stroke="none" 
	d="
M56.533493,51.491707 
	C57.010490,51.703094 57.294590,51.888577 57.781967,52.540642 
	C57.264427,52.822704 56.543613,52.638184 55.715294,52.183754 
	C55.819721,51.711002 56.063992,51.561657 56.533493,51.491707 
z"/>
<path fill="#848591" opacity="1.000000" stroke="none" 
	d="
M36.216454,51.962246 
	C36.216454,51.962246 36.358124,51.963638 36.422699,51.986145 
	C36.750298,52.135902 37.013321,52.263161 37.565952,52.723709 
	C37.005749,53.194363 36.155937,53.331715 35.394329,53.120583 
	C35.727173,52.502148 35.971813,52.232197 36.216454,51.962246 
z"/>
<path fill="#66666F" opacity="1.000000" stroke="none" 
	d="
M35.911423,51.978325 
	C35.971813,52.232197 35.727173,52.502148 35.237221,52.892883 
	C34.991909,53.013668 34.985466,52.518501 34.990826,52.271210 
	C35.199589,52.014076 35.402988,52.004242 35.911423,51.978325 
z"/>
</svg>