<svg version="1.1" id="Layer_1" xmlns="http://www.w3.org/2000/svg" xmlns:xlink="http://www.w3.org/1999/xlink" x="0px" y="0px"
	 width="100%" viewBox="0 0 58 62" enable-background="new 0 0 58 62" xml:space="preserve">
<path fill="#FFFFFF" opacity="1.000000" stroke="none" 
	d="
M1.000000,25.000038 
	C1.000000,16.666723 1.000000,8.833391 1.000000,1.000045 
	C20.333311,1.000030 39.666622,1.000030 58.999947,1.000015 
	C58.999966,21.666639 58.999966,42.333279 58.999985,62.999939 
	C39.666698,62.999962 20.333395,62.999962 1.000046,62.999981 
	C1.000000,50.500008 1.000000,38.000015 1.000000,25.000038 
M52.536854,48.890583 
	C52.627964,48.596203 52.719070,48.301823 53.099979,47.403217 
	C53.433861,46.613743 53.767746,45.824268 54.664165,44.803204 
	C54.811531,44.222588 54.958897,43.641972 55.027351,43.025787 
	C55.027351,43.025787 55.049335,43.109505 55.540024,42.931488 
	C55.637875,42.630135 55.735725,42.328781 55.989067,41.289051 
	C56.325119,39.870731 56.661171,38.452412 57.248257,36.257008 
	C57.130676,35.184502 57.013100,34.112000 57.072334,32.350201 
	C56.948818,31.895285 56.825306,31.440369 56.784943,30.334036 
	C56.678619,29.915524 56.572296,29.497009 56.647457,28.529667 
	C56.273689,27.660418 55.899925,26.791166 55.464428,25.320738 
	C55.158894,24.804058 54.853359,24.287378 54.524311,23.094774 
	C53.993469,22.396729 53.462631,21.698681 52.838791,20.356318 
	C52.118404,19.582861 51.398018,18.809402 50.585487,17.490063 
	C50.026146,17.018625 49.466801,16.547188 48.704254,15.486272 
	C48.336395,15.312232 47.968536,15.138192 47.411964,14.621072 
	C47.204884,14.456448 46.976528,14.330317 46.697273,13.652637 
	C46.379124,13.442812 46.060974,13.232987 45.735836,12.644376 
	C45.735836,12.644376 45.663166,12.272561 45.626896,11.617962 
	C44.711494,10.710551 43.796093,9.803142 42.439770,8.347141 
	C41.258812,8.304730 40.077858,8.262320 38.344410,8.049233 
	C37.967342,7.970136 37.590279,7.891038 36.692722,7.358225 
	C35.792538,7.257335 34.892357,7.156445 33.363312,6.891906 
	C32.312908,6.681792 31.262503,6.471677 29.542152,6.113602 
	C28.701071,6.310324 27.859991,6.507047 26.354258,6.777697 
	C25.509966,6.952193 24.665674,7.126690 23.050766,7.192420 
	C21.686924,7.763045 20.323080,8.333670 18.256969,8.999129 
	C17.315733,9.644844 16.374498,10.290559 14.800682,10.954324 
	C13.952858,11.567385 13.105034,12.180446 11.767200,12.964770 
	C11.158442,13.614351 10.549684,14.263932 9.372348,15.218887 
	C8.901561,16.139488 8.430774,17.060089 7.995482,18.005383 
	C7.995482,18.005383 7.988729,17.962713 7.527717,18.147070 
	C7.220985,18.347929 7.078071,18.631371 6.971374,19.464874 
	C6.971374,19.464874 6.855600,19.935419 6.148995,20.029812 
	C1.539074,23.478886 1.346604,28.023355 2.948826,33.865948 
	C3.002721,35.581535 3.056617,37.297127 3.042068,39.603935 
	C3.334970,40.073891 3.627873,40.543842 3.965600,41.704380 
	C4.285834,42.504444 4.606069,43.304512 5.047259,44.700512 
	C5.625785,45.483799 6.204310,46.267090 6.952688,47.636566 
	C7.255945,48.105427 7.559201,48.574291 8.060892,49.544224 
	C8.357805,49.729256 8.654718,49.914288 9.207561,50.665512 
	C10.129092,51.479012 11.050623,52.292507 12.137847,53.579689 
	C12.424308,53.733685 12.710768,53.887680 13.201437,54.607800 
	C13.830157,55.078308 14.458878,55.548817 15.310416,56.590717 
	C15.898709,56.745697 16.487001,56.900681 17.160275,57.483223 
	C17.160275,57.483223 17.471458,57.788200 17.471458,57.788200 
	C17.471458,57.788200 17.899807,57.707470 18.422863,57.922764 
	C18.610392,57.942291 18.797922,57.961823 19.270309,58.592659 
	C19.920404,58.754379 20.570501,58.916100 21.550865,59.696125 
	C23.697527,60.225349 25.844189,60.754574 28.797155,61.574341 
	C30.195873,61.442463 31.594591,61.310585 33.796555,61.289455 
	C36.873909,59.875877 39.951263,58.462299 43.655003,56.858162 
	C44.769913,55.945744 45.884827,55.033325 47.527328,53.944733 
	C47.717987,53.641079 47.908649,53.337425 48.588318,52.907478 
	C48.748951,52.623535 48.909584,52.339588 49.573963,51.912174 
	C49.748135,51.618275 49.922310,51.324375 50.587517,50.905350 
	C50.752407,50.621357 50.917301,50.337364 51.576679,49.910976 
	C51.736084,49.619434 51.895493,49.327892 51.998611,49.004337 
	C51.998611,49.004337 52.052170,49.043957 52.536854,48.890583 
z"/>
<path fill="#5A191A" opacity="1.000000" stroke="none" 
	d="
M21.220596,59.077820 
	C20.570501,58.916100 19.920404,58.754379 19.141758,57.928001 
	C19.674757,55.508720 20.336306,53.754097 21.298622,51.854256 
	C25.354317,49.004223 27.618675,43.064163 33.991222,46.380718 
	C34.005039,47.502583 34.003250,48.250687 33.633522,49.004463 
	C30.842972,50.673050 28.420364,52.335976 25.709835,54.135464 
	C24.305042,55.522564 23.188175,56.773102 21.978939,58.236092 
	C21.724722,58.721951 21.502729,58.931709 21.220596,59.077820 
z"/>
<path fill="#E33E2F" opacity="1.000000" stroke="none" 
	d="
M56.997223,37.034092 
	C56.661171,38.452412 56.325119,39.870731 55.718765,41.787273 
	C55.225544,42.516621 55.092503,42.791290 55.049335,43.109505 
	C55.049335,43.109505 55.027351,43.025787 54.648479,43.025459 
	C49.107281,43.871716 43.955978,44.666893 40.191498,39.700813 
	C41.263882,39.286938 42.129238,39.133553 43.375713,38.988274 
	C44.518620,38.976009 45.280399,38.955643 46.288815,39.058426 
	C47.018429,39.436230 47.501408,39.690876 48.371819,39.960506 
	C50.167427,39.650394 51.575607,39.325298 53.243164,38.995640 
	C53.675396,38.985874 53.848255,38.980671 54.342762,38.943859 
	C55.129398,38.279934 55.594387,37.647617 56.293816,37.021233 
	C56.528252,37.027164 56.997223,37.034092 56.997223,37.034092 
z"/>
<path fill="#DEB5B2" opacity="1.000000" stroke="none" 
	d="
M2.930700,33.008362 
	C1.346604,28.023355 1.539074,23.478886 6.776172,20.158691 
	C7.918071,21.196270 8.432795,22.104973 8.954073,23.252337 
	C8.960628,23.490999 8.972522,23.968355 8.863678,24.226566 
	C8.581712,25.007383 8.408589,25.529993 8.135214,26.404583 
	C7.699869,28.171438 7.364777,29.586313 6.734588,30.999046 
	C5.955518,31.390781 5.471547,31.784655 4.791275,32.390835 
	C4.040217,32.738216 3.485459,32.873291 2.930700,33.008362 
z"/>
<path fill="#F36854" opacity="1.000000" stroke="none" 
	d="
M46.726906,14.242680 
	C46.976528,14.330317 47.204884,14.456448 47.229355,14.741906 
	C46.862595,14.903699 46.678444,14.944658 46.359627,15.205244 
	C46.151646,15.930205 46.078331,16.435541 45.781532,17.059692 
	C45.365707,17.449770 45.173367,17.721029 44.703224,18.130985 
	C44.223858,19.520941 44.022289,20.772202 43.477219,22.019089 
	C41.751057,21.007566 40.368393,20.000418 38.990334,18.587246 
	C39.712204,16.450390 40.429478,14.719555 41.561821,13.059574 
	C42.814556,13.106145 43.652222,13.081862 44.691315,13.326307 
	C45.504131,13.810917 46.115520,14.026798 46.726906,14.242680 
z"/>
<path fill="#281920" opacity="1.000000" stroke="none" 
	d="
M43.028614,57.048721 
	C39.951263,58.462299 36.873909,59.875877 33.397053,60.802448 
	C32.998165,58.878082 32.998775,57.440720 33.226646,55.882824 
	C33.643467,55.482117 33.833023,55.201946 34.435165,54.957565 
	C36.229183,55.025284 37.610619,55.057205 39.204193,55.339264 
	C40.274578,55.738804 41.132816,55.888206 42.102226,56.263496 
	C42.485138,56.675831 42.756878,56.862274 43.028614,57.048721 
z"/>
<path fill="#DC362A" opacity="1.000000" stroke="none" 
	d="
M39.984463,39.961304 
	C43.955978,44.666893 49.107281,43.871716 54.687935,43.043243 
	C54.958897,43.641972 54.811531,44.222588 54.000603,44.910324 
	C52.224010,45.672573 51.110981,46.327694 49.623764,46.988010 
	C48.500980,46.993610 47.752384,46.994019 46.944191,46.644203 
	C44.256611,45.524643 41.628632,44.755299 38.669914,43.986282 
	C37.898190,43.986916 37.457203,43.987217 37.049103,43.664635 
	C37.727009,42.229244 38.372032,41.116737 39.259033,39.996483 
	C39.501019,39.988735 39.984463,39.961304 39.984463,39.961304 
z"/>
<path fill="#C94330" opacity="1.000000" stroke="none" 
	d="
M57.122742,36.645550 
	C56.997223,37.034092 56.528252,37.027164 55.965782,37.051205 
	C54.942585,37.708649 54.481850,38.342056 54.021118,38.975464 
	C53.848255,38.980671 53.675396,38.985874 52.829731,38.996704 
	C50.776581,38.993889 49.396229,38.985447 47.903309,38.761368 
	C47.589130,38.277718 47.329662,38.089401 47.007286,37.738224 
	C47.002232,37.495663 47.000641,37.010441 47.223049,36.899242 
	C47.723099,36.590736 47.931618,36.336685 48.479256,36.022385 
	C51.910812,36.413532 53.474026,35.286274 53.378067,32.040882 
	C54.455914,32.032635 55.174599,32.038761 56.006790,32.262112 
	C56.296883,32.779312 56.555290,32.966030 56.895523,33.039494 
	C57.013100,34.112000 57.130676,35.184502 57.122742,36.645550 
z"/>
<path fill="#D7A6A2" opacity="1.000000" stroke="none" 
	d="
M8.947517,23.013674 
	C8.432795,22.104973 7.918071,21.196270 7.129474,20.111494 
	C6.855600,19.935419 6.971374,19.464874 7.239251,19.112768 
	C7.762881,18.552176 7.923414,18.286192 7.988729,17.962713 
	C7.988729,17.962713 7.995482,18.005383 8.304024,17.979933 
	C9.408015,17.302063 10.203466,16.649643 11.277581,15.867561 
	C12.389204,15.151526 13.222161,14.565151 14.164598,14.234400 
	C14.514971,14.991224 14.755864,15.492425 14.952015,16.318462 
	C14.824513,17.072130 14.741754,17.500961 14.310250,17.951431 
	C13.291690,18.977760 12.621874,19.982449 11.639786,21.027470 
	C10.534182,21.716425 9.740849,22.365049 8.947517,23.013674 
z"/>
<path fill="#E16A53" opacity="1.000000" stroke="none" 
	d="
M50.677635,18.035946 
	C51.398018,18.809402 52.118404,19.582861 52.545811,20.731182 
	C51.837090,22.070845 51.421349,23.035639 50.772148,24.009041 
	C50.538685,24.017645 50.071625,24.030655 49.922588,23.806870 
	C49.204182,23.664501 48.634815,23.745920 47.683319,23.840517 
	C46.536457,23.825186 45.771717,23.796677 45.002068,23.620396 
	C44.997158,23.472628 44.964386,23.178745 45.242798,23.160421 
	C45.753860,22.877043 45.986515,22.611986 46.219166,22.346930 
	C45.810627,22.217981 45.402088,22.089033 45.014137,21.707920 
	C45.060852,21.289118 45.086979,21.122484 45.448666,20.922117 
	C46.844070,19.945118 47.903912,19.001850 49.249794,18.051533 
	C49.916435,18.041637 50.297035,18.038792 50.677635,18.035946 
z"/>
<path fill="#381B21" opacity="1.000000" stroke="none" 
	d="
M21.385731,59.386971 
	C21.502729,58.931709 21.724722,58.721951 22.358166,58.228813 
	C24.551218,57.671860 26.272676,57.334633 28.246021,56.998703 
	C28.665831,57.000778 28.833754,57.001556 28.962946,57.369370 
	C28.613092,58.918865 28.301971,60.101330 27.990849,61.283798 
	C25.844189,60.754574 23.697527,60.225349 21.385731,59.386971 
z"/>
<path fill="#F2B1AD" opacity="1.000000" stroke="none" 
	d="
M2.939763,33.437157 
	C3.485459,32.873291 4.040217,32.738216 5.088560,32.585724 
	C6.053316,34.379780 6.524488,36.191257 6.972605,38.298889 
	C6.632868,39.061745 6.316188,39.528446 5.803244,39.737976 
	C4.774825,39.324776 3.942668,39.168743 3.110512,39.012714 
	C3.056617,37.297127 3.002721,35.581535 2.939763,33.437157 
z"/>
<path fill="#2E1A21" opacity="1.000000" stroke="none" 
	d="
M28.394001,61.429070 
	C28.301971,60.101330 28.613092,58.918865 29.308054,57.336861 
	C30.794394,56.625999 31.896893,56.314682 32.999390,56.003365 
	C32.998775,57.440720 32.998165,58.878082 32.995430,60.747074 
	C31.594591,61.310585 30.195873,61.442463 28.394001,61.429070 
z"/>
<path fill="#551F24" opacity="1.000000" stroke="none" 
	d="
M43.341808,56.953442 
	C42.756878,56.862274 42.485138,56.675831 42.105408,55.867275 
	C42.006657,54.197941 42.015896,53.150719 42.437111,52.058620 
	C44.232162,52.010422 45.615238,52.007099 46.996735,52.253998 
	C46.996090,52.671032 46.997032,52.837849 46.998634,53.283722 
	C46.999443,53.748821 46.999588,53.934864 46.999737,54.120907 
	C45.884827,55.033325 44.769913,55.945744 43.341808,56.953442 
z"/>
<path fill="#9F3A35" opacity="1.000000" stroke="none" 
	d="
M11.972155,53.106007 
	C11.050623,52.292507 10.129092,51.479012 9.099913,50.101364 
	C8.980077,49.350166 8.967891,49.163120 8.962777,48.649002 
	C8.954205,47.886208 8.938560,47.450485 9.238816,47.001240 
	C9.764556,47.001221 9.974397,47.014725 10.553985,46.999809 
	C11.669003,47.005230 12.414274,47.039078 13.118256,47.463577 
	C13.046749,48.901081 13.016532,49.947933 12.733776,51.173954 
	C12.311543,51.937416 12.141850,52.521709 11.972155,53.106007 
z"/>
<path fill="#E8655C" opacity="1.000000" stroke="none" 
	d="
M18.959238,8.904293 
	C20.323080,8.333670 21.686924,7.763045 23.485643,7.702035 
	C23.953110,8.815948 23.985701,9.420247 23.739353,10.142685 
	C22.641418,10.841430 21.822418,11.422035 20.739870,12.102818 
	C19.981289,12.467999 19.486259,12.733004 18.978222,12.675217 
	C18.957813,11.921758 18.950413,11.491089 18.960625,10.700999 
	C18.971905,9.862483 18.965572,9.383388 18.959238,8.904293 
z"/>
<path fill="#641F21" opacity="1.000000" stroke="none" 
	d="
M20.997856,51.999470 
	C20.336306,53.754097 19.674757,55.508720 18.999329,57.622345 
	C18.797922,57.961823 18.610392,57.942291 18.060369,57.665359 
	C17.523287,57.232327 17.315760,57.114895 17.075294,57.055660 
	C16.487001,56.900681 15.898709,56.745697 15.475789,56.151222 
	C16.093397,54.807140 16.545631,53.902554 17.295116,52.976528 
	C18.059483,52.635971 18.526600,52.316853 19.327755,51.998394 
	C20.107147,51.999187 20.552500,51.999329 20.997856,51.999470 
z"/>
<path fill="#ED8781" opacity="1.000000" stroke="none" 
	d="
M18.943012,11.060421 
	C18.950413,11.491089 18.957813,11.921758 18.967918,12.996662 
	C18.954561,14.069384 18.938499,14.497869 18.610535,14.939888 
	C17.882334,14.950691 17.466034,14.947962 16.900412,14.676049 
	C15.898053,13.951612 15.045016,13.496356 13.707506,12.985312 
	C12.901090,12.884184 12.579149,12.838845 12.257210,12.793508 
	C13.105034,12.180446 13.952858,11.567385 15.556858,10.959364 
	C17.189693,10.996409 18.066353,11.028415 18.943012,11.060421 
z"/>
<path fill="#F4D7D6" opacity="1.000000" stroke="none" 
	d="
M42.880692,8.895731 
	C43.796093,9.803142 44.711494,10.710551 45.238449,11.892847 
	C43.758694,12.289217 42.667381,12.410701 41.324677,12.424482 
	C40.712612,12.231794 40.351940,12.146810 39.900116,11.763551 
	C39.570538,10.694787 39.332115,9.924296 39.071442,9.121513 
	C39.049194,9.089221 39.018536,9.017032 39.406113,9.024742 
	C40.822689,8.986878 41.851692,8.941305 42.880692,8.895731 
z"/>
<path fill="#DD6048" opacity="1.000000" stroke="none" 
	d="
M50.071625,24.030655 
	C50.071625,24.030655 50.538685,24.017645 51.212898,24.008347 
	C52.774014,23.922932 53.660915,23.846815 54.547821,23.770699 
	C54.853359,24.287378 55.158894,24.804058 55.156006,25.742165 
	C54.561722,26.778109 54.275867,27.392626 53.744019,28.007687 
	C53.498032,28.008230 53.006062,28.011629 52.731865,27.884502 
	C51.653252,26.906157 50.848839,26.054935 50.050606,24.910435 
	C50.061733,24.421656 50.066677,24.226156 50.071625,24.030655 
z"/>
<path fill="#EE9E99" opacity="1.000000" stroke="none" 
	d="
M5.999507,39.995144 
	C6.316188,39.528446 6.632868,39.061745 6.978663,38.294994 
	C7.007778,37.994942 7.019830,37.987202 7.261098,38.159389 
	C7.668607,38.887959 7.834847,39.444340 8.000323,40.334435 
	C7.998833,41.113037 7.998106,41.557926 7.993061,42.239395 
	C7.988743,42.475975 7.979855,42.949127 7.632171,42.964088 
	C6.498426,43.354229 5.712366,43.729401 4.926304,44.104576 
	C4.606069,43.304512 4.285834,42.504444 4.251842,41.336372 
	C5.025224,40.643959 5.512365,40.319550 5.999507,39.995144 
z"/>
<path fill="#D52F26" opacity="1.000000" stroke="none" 
	d="
M49.997952,46.982819 
	C51.110981,46.327694 52.224010,45.672573 53.719337,45.026123 
	C53.767746,45.824268 53.433861,46.613743 52.769852,47.829712 
	C52.219570,48.474030 52.090382,48.736614 52.052170,49.043957 
	C52.052170,49.043957 51.998611,49.004337 51.762627,48.988338 
	C51.352036,48.942879 51.177429,48.913422 50.887070,48.643063 
	C50.513523,47.929050 50.255737,47.455936 49.997952,46.982819 
z"/>
<path fill="#D7533D" opacity="1.000000" stroke="none" 
	d="
M53.006062,28.011629 
	C53.006062,28.011629 53.498032,28.008230 53.904358,28.244766 
	C55.029114,28.680367 55.747543,28.879433 56.465973,29.078497 
	C56.572296,29.497009 56.678619,29.915524 56.560120,30.793308 
	C56.144569,31.492472 55.997234,31.756573 55.893288,32.044884 
	C55.174599,32.038761 54.455914,32.032635 53.368279,31.782768 
	C52.997410,31.367290 52.995487,31.195549 52.996616,30.646637 
	C53.001797,29.516851 53.003929,28.764240 53.006062,28.011629 
z"/>
<path fill="#ECBEBC" opacity="1.000000" stroke="none" 
	d="
M27.018909,6.703769 
	C27.859991,6.507047 28.701071,6.310324 29.856609,6.458620 
	C30.123751,7.163480 30.076433,7.523322 30.104153,8.147366 
	C30.440702,8.889971 30.702217,9.368373 30.694183,9.881429 
	C30.061989,9.924300 29.699343,9.932518 29.133503,9.731339 
	C28.585381,9.372292 28.240450,9.222641 27.626823,8.863594 
	C27.245054,8.004055 27.131981,7.353912 27.018909,6.703769 
z"/>
<path fill="#6E2020" opacity="1.000000" stroke="none" 
	d="
M16.997864,52.997967 
	C16.545631,53.902554 16.093397,54.807140 15.364380,55.865524 
	C14.458878,55.548817 13.830157,55.078308 13.213337,54.102516 
	C13.421255,53.312038 13.683538,53.115086 14.385067,53.004578 
	C15.504651,53.001175 16.251257,52.999573 16.997864,52.997967 
z"/>
<path fill="#E55C53" opacity="1.000000" stroke="none" 
	d="
M26.686583,6.740733 
	C27.131981,7.353912 27.245054,8.004055 27.641132,9.100893 
	C27.924139,9.547589 28.015648,10.015281 27.664360,10.011877 
	C26.844025,10.001426 26.374977,9.994377 25.591446,10.002974 
	C24.857405,10.020595 24.437847,10.022571 24.018290,10.024547 
	C23.985701,9.420247 23.953110,8.815948 23.870953,7.756418 
	C24.665674,7.126690 25.509966,6.952193 26.686583,6.740733 
z"/>
<path fill="#EA8C86" opacity="1.000000" stroke="none" 
	d="
M4.986782,44.402542 
	C5.712366,43.729401 6.498426,43.354229 7.643346,43.299385 
	C8.008306,44.064213 8.014408,44.508709 8.009583,45.269920 
	C7.972690,46.006474 7.946723,46.426308 7.637503,46.904037 
	C7.163779,46.991417 6.973308,47.020897 6.782836,47.050377 
	C6.204310,46.267090 5.625785,45.483799 4.986782,44.402542 
z"/>
<path fill="#F46F5A" opacity="1.000000" stroke="none" 
	d="
M54.536064,23.432735 
	C53.660915,23.846815 52.774014,23.922932 51.446358,23.999741 
	C51.421349,23.035639 51.837090,22.070845 52.592308,21.053341 
	C53.462631,21.698681 53.993469,22.396729 54.536064,23.432735 
z"/>
<path fill="#F46F5A" opacity="1.000000" stroke="none" 
	d="
M50.631561,17.763004 
	C50.297035,18.038792 49.916435,18.041637 48.965179,17.906143 
	C47.598022,17.492159 46.801517,17.216518 46.005020,16.940878 
	C46.078331,16.435541 46.151646,15.930205 46.616581,15.434839 
	C47.641289,15.655122 48.274372,15.865436 48.907459,16.075748 
	C49.466801,16.547188 50.026146,17.018625 50.631561,17.763004 
z"/>
<path fill="#EF9E99" opacity="1.000000" stroke="none" 
	d="
M12.012205,12.879139 
	C12.579149,12.838845 12.901090,12.884184 13.665531,13.218517 
	C14.108031,13.507511 14.055120,13.978776 14.055120,13.978776 
	C13.222161,14.565151 12.389204,15.151526 11.046408,15.747430 
	C10.338022,15.475810 10.139475,15.194662 9.940927,14.913514 
	C10.549684,14.263932 11.158442,13.614351 12.012205,12.879139 
z"/>
<path fill="#ED6551" opacity="1.000000" stroke="none" 
	d="
M56.556717,28.804081 
	C55.747543,28.879433 55.029114,28.680367 54.150345,28.244225 
	C54.275867,27.392626 54.561722,26.778109 55.186871,26.042751 
	C55.899925,26.791166 56.273689,27.660418 56.556717,28.804081 
z"/>
<path fill="#F2ABA7" opacity="1.000000" stroke="none" 
	d="
M9.656637,15.066200 
	C10.139475,15.194662 10.338022,15.475810 10.767744,15.877090 
	C10.203466,16.649643 9.408015,17.302063 8.286276,17.967587 
	C8.430774,17.060089 8.901561,16.139488 9.656637,15.066200 
z"/>
<path fill="#F0A9A4" opacity="1.000000" stroke="none" 
	d="
M5.803243,39.737976 
	C5.512365,40.319550 5.025224,40.643959 4.229429,40.991081 
	C3.627873,40.543842 3.334970,40.073891 3.076290,39.308327 
	C3.942668,39.168743 4.774825,39.324776 5.803243,39.737976 
z"/>
<path fill="#842927" opacity="1.000000" stroke="none" 
	d="
M14.012088,53.006371 
	C13.683538,53.115086 13.421255,53.312038 13.111233,53.819454 
	C12.710768,53.887680 12.424308,53.733685 12.055000,53.342850 
	C12.141850,52.521709 12.311543,51.937416 12.983397,51.340240 
	C13.661066,51.887028 13.836576,52.446701 14.012088,53.006371 
z"/>
<path fill="#C8675E" opacity="1.000000" stroke="none" 
	d="
M30.029118,7.883163 
	C30.076433,7.523322 30.123751,7.163480 30.191582,6.532601 
	C31.262503,6.471677 32.312908,6.681792 33.728813,7.241444 
	C34.134087,7.768378 34.173862,7.945774 33.787735,8.122997 
	C32.250927,8.042937 31.140022,7.963050 30.029118,7.883163 
z"/>
<path fill="#EB726A" opacity="1.000000" stroke="none" 
	d="
M18.960625,10.700998 
	C18.066353,11.028415 17.189693,10.996409 15.873148,10.950338 
	C16.374498,10.290559 17.315733,9.644844 18.608105,8.951712 
	C18.965572,9.383388 18.971905,9.862483 18.960625,10.700998 
z"/>
<path fill="#E36A62" opacity="1.000000" stroke="none" 
	d="
M6.867763,47.343472 
	C6.973308,47.020897 7.163779,46.991417 7.886414,46.959366 
	C8.586690,46.976116 8.754804,46.995438 8.922916,47.014763 
	C8.938560,47.450485 8.954205,47.886208 8.689901,48.661896 
	C8.227455,49.015621 8.044956,49.029385 7.862457,49.043152 
	C7.559201,48.574291 7.255945,48.105427 6.867763,47.343472 
z"/>
<path fill="#D6756C" opacity="1.000000" stroke="none" 
	d="
M37.213211,7.811941 
	C37.590279,7.891038 37.967342,7.970136 38.640701,8.335308 
	C38.936989,8.621384 39.018536,9.017032 39.018536,9.017032 
	C39.018536,9.017032 39.049194,9.089221 38.681000,9.074477 
	C37.089497,8.727991 35.866192,8.396249 35.072819,8.040192 
	C36.072906,7.947899 36.643059,7.879920 37.213211,7.811941 
z"/>
<path fill="#E0A5A0" opacity="1.000000" stroke="none" 
	d="
M39.406113,9.024742 
	C39.018536,9.017032 38.936989,8.621384 38.916946,8.420647 
	C40.077858,8.262320 41.258812,8.304730 42.660233,8.621437 
	C41.851692,8.941305 40.822689,8.986878 39.406113,9.024742 
z"/>
<path fill="#EE9E99" opacity="1.000000" stroke="none" 
	d="
M41.576069,12.532185 
	C42.667381,12.410701 43.758694,12.289217 45.256584,12.220147 
	C45.663166,12.272561 45.735836,12.644376 45.426796,12.834969 
	C44.908466,13.036235 44.699177,13.046906 44.489887,13.057579 
	C43.652222,13.081862 42.814556,13.106145 41.702087,12.970358 
	C41.427288,12.810287 41.576069,12.532184 41.576069,12.532185 
z"/>
<path fill="#E49893" opacity="1.000000" stroke="none" 
	d="
M36.952965,7.585083 
	C36.643059,7.879920 36.072906,7.947899 34.969067,8.065343 
	C34.435379,8.114807 34.213642,8.123170 34.213642,8.123170 
	C34.173862,7.945774 34.134087,7.768378 34.043243,7.323268 
	C34.892357,7.156445 35.792538,7.257335 36.952965,7.585083 
z"/>
<path fill="#EFB0AD" opacity="1.000000" stroke="none" 
	d="
M44.691315,13.326307 
	C44.699177,13.046906 44.908466,13.036235 45.430290,13.024363 
	C46.060974,13.232987 46.379124,13.442812 46.712090,13.947659 
	C46.115520,14.026798 45.504131,13.810917 44.691315,13.326307 
z"/>
<path fill="#9E1F1F" opacity="1.000000" stroke="none" 
	d="
M51.082191,50.053375 
	C50.917301,50.337364 50.752407,50.621357 50.066311,50.953667 
	C49.361633,50.996937 49.178162,50.991894 48.993752,50.734306 
	C48.988728,50.313454 48.984646,50.145142 49.300598,49.969864 
	C50.046246,49.944534 50.471855,49.926170 50.939392,49.949593 
	C50.981323,49.991383 51.082188,50.053371 51.082191,50.053375 
z"/>
<path fill="#761A1E" opacity="1.000000" stroke="none" 
	d="
M46.997978,53.004662 
	C46.997032,52.837849 46.996090,52.671032 47.319366,52.243599 
	C48.072693,51.967033 48.501801,51.951096 48.963036,51.968399 
	C48.995163,52.001644 49.070217,52.055645 49.070217,52.055645 
	C48.909584,52.339588 48.748951,52.623535 48.068520,52.956978 
	C47.365135,53.005871 47.181557,53.005264 46.997978,53.004662 
z"/>
<path fill="#E96C60" opacity="1.000000" stroke="none" 
	d="
M56.006790,32.262112 
	C55.997234,31.756573 56.144569,31.492472 56.518547,31.119017 
	C56.825306,31.440369 56.948818,31.895285 56.983925,32.694847 
	C56.555290,32.966030 56.296883,32.779312 56.006790,32.262112 
z"/>
<path fill="#F3A39D" opacity="1.000000" stroke="none" 
	d="
M48.805855,15.781010 
	C48.274372,15.865436 47.641289,15.655122 46.751247,15.215214 
	C46.678444,14.944658 46.862595,14.903699 47.323711,14.913446 
	C47.968536,15.138192 48.336395,15.312232 48.805855,15.781010 
z"/>
<path fill="#DC362A" opacity="1.000000" stroke="none" 
	d="
M55.294678,43.020496 
	C55.092503,42.791290 55.225544,42.516621 55.641022,42.156464 
	C55.735725,42.328781 55.637875,42.630135 55.294678,43.020496 
z"/>
<path fill="#C95A53" opacity="1.000000" stroke="none" 
	d="
M7.961675,49.293686 
	C8.044956,49.029385 8.227455,49.015621 8.682830,48.988968 
	C8.967891,49.163120 8.980077,49.350166 8.971947,49.818268 
	C8.654718,49.914288 8.357805,49.729256 7.961675,49.293686 
z"/>
<path fill="#5A191A" opacity="1.000000" stroke="none" 
	d="
M17.117785,57.269440 
	C17.315760,57.114895 17.523287,57.232327 17.798841,57.557709 
	C17.899807,57.707470 17.471458,57.788200 17.471458,57.788200 
	C17.471458,57.788200 17.160275,57.483223 17.117785,57.269440 
z"/>
<path fill="#621B1E" opacity="1.000000" stroke="none" 
	d="
M46.998634,53.283722 
	C47.181557,53.005264 47.365135,53.005871 47.824013,53.020126 
	C47.908649,53.337425 47.717987,53.641079 47.263535,54.032822 
	C46.999588,53.934864 46.999443,53.748821 46.998634,53.283722 
z"/>
<path fill="#F2ABA7" opacity="1.000000" stroke="none" 
	d="
M7.758223,18.054892 
	C7.923414,18.286192 7.762881,18.552176 7.303052,18.879030 
	C7.078071,18.631371 7.220985,18.347929 7.758223,18.054892 
z"/>
<path fill="#881B1E" opacity="1.000000" stroke="none" 
	d="
M48.994690,50.986851 
	C49.178162,50.991894 49.361633,50.996937 49.820793,51.016228 
	C49.922310,51.324375 49.748135,51.618275 49.322090,51.983910 
	C49.070217,52.055645 48.995163,52.001644 48.986397,51.732098 
	C48.977631,51.462551 48.994690,50.986851 48.994690,50.986851 
z"/>
<path fill="#B32523" opacity="1.000000" stroke="none" 
	d="
M51.002823,48.883961 
	C51.177429,48.913422 51.352036,48.942879 51.790771,49.004341 
	C51.895493,49.327892 51.736084,49.619434 51.329433,49.982174 
	C51.082188,50.053371 50.981323,49.991383 50.969330,49.694252 
	C50.972504,49.226067 50.987663,49.055012 51.002823,48.883961 
z"/>
<path fill="#C82822" opacity="1.000000" stroke="none" 
	d="
M52.294510,48.967270 
	C52.090382,48.736614 52.219570,48.474030 52.624954,48.131821 
	C52.719070,48.301823 52.627964,48.596203 52.294510,48.967270 
z"/>
<path fill="#AA1D1C" opacity="1.000000" stroke="none" 
	d="
M48.993752,50.734306 
	C48.994690,50.986851 48.977631,51.462551 48.954269,51.698853 
	C48.501801,51.951096 48.072693,51.967033 47.320950,51.993374 
	C45.615238,52.007099 44.232162,52.010422 42.159252,52.003445 
	C40.649364,52.003193 39.829304,52.013245 38.604668,52.002571 
	C36.864788,51.945675 35.529480,51.909512 34.167366,51.860550 
	C34.140553,51.847759 34.110519,51.898205 34.116302,51.535343 
	C34.081882,50.447918 34.041676,49.723358 34.001465,48.998795 
	C34.003250,48.250687 34.005039,47.502583 34.020267,46.136909 
	C34.033707,45.519341 34.060257,45.029182 34.303722,45.029747 
	C34.547188,45.030315 35.034840,45.052765 35.102097,45.403099 
	C36.440086,46.175007 37.710819,46.596577 38.989296,47.344753 
	C39.667213,48.101460 40.337387,48.531555 41.422482,48.971016 
	C44.218456,49.312531 46.599506,49.644676 48.980560,49.976826 
	C48.984646,50.145142 48.988728,50.313454 48.993752,50.734306 
z"/>
<path fill="#6A1D1B" opacity="1.000000" stroke="none" 
	d="
M34.060257,45.029182 
	C34.060257,45.029182 34.033707,45.519341 34.004662,45.763153 
	C27.618675,43.064163 25.354317,49.004223 21.298622,51.854256 
	C20.552500,51.999329 20.107147,51.999187 19.447262,51.709648 
	C19.421810,50.833862 19.610889,50.247478 19.984972,49.402817 
	C22.424772,47.085865 24.679571,45.027187 27.358578,42.979668 
	C29.190826,42.991707 30.598866,42.992584 32.254532,42.995155 
	C32.502163,42.996845 32.997402,43.002522 33.020233,43.307140 
	C33.382133,44.084232 33.721195,44.556705 34.060257,45.029182 
z"/>
<path fill="#461518" opacity="1.000000" stroke="none" 
	d="
M33.633522,49.004463 
	C34.041676,49.723358 34.081882,50.447918 33.745262,51.573524 
	C31.579800,52.650356 29.791164,53.326145 27.668415,54.001389 
	C26.888786,54.000195 26.443274,53.999550 25.997759,53.998901 
	C28.420364,52.335976 30.842972,50.673050 33.633522,49.004463 
z"/>
<path fill="#43191D" opacity="1.000000" stroke="none" 
	d="
M25.709835,54.135468 
	C26.443274,53.999550 26.888786,54.000195 27.667645,54.375816 
	C27.998705,55.499660 27.996420,56.248531 27.994135,56.997406 
	C26.272676,57.334633 24.551218,57.671860 22.450535,58.016365 
	C23.188175,56.773102 24.305042,55.522564 25.709835,54.135468 
z"/>
<path fill="#A93228" opacity="1.000000" stroke="none" 
	d="
M40.191498,39.700813 
	C39.984463,39.961304 39.501019,39.988735 38.903786,39.956951 
	C37.515926,38.638832 36.725296,37.352501 35.952652,35.834145 
	C35.970642,35.602123 35.977039,35.138622 36.344574,35.105286 
	C37.450001,35.051624 38.187893,35.031303 38.991188,35.324379 
	C39.700508,36.048470 40.344429,36.459167 41.320854,36.906960 
	C42.098240,36.975746 42.543114,37.007442 42.992783,37.363060 
	C42.996582,38.118046 42.995586,38.549103 42.994591,38.980164 
	C42.129238,39.133553 41.263882,39.286938 40.191498,39.700813 
z"/>
<path fill="#B43B2F" opacity="1.000000" stroke="none" 
	d="
M43.375717,38.988274 
	C42.995586,38.549103 42.996582,38.118046 43.393990,37.342659 
	C44.860477,37.002369 45.930561,37.006405 47.000641,37.010445 
	C47.000641,37.010441 47.002232,37.495663 46.794518,37.841320 
	C46.314373,38.370274 46.132832,38.619705 46.042183,38.935272 
	C45.280399,38.955643 44.518620,38.976009 43.375717,38.988274 
z"/>
<path fill="#AF3328" opacity="1.000000" stroke="none" 
	d="
M48.015881,38.977005 
	C49.396229,38.985447 50.776581,38.993889 52.570358,39.001266 
	C51.575607,39.325298 50.167427,39.650394 48.380318,39.718662 
	C48.001389,39.461834 48.015881,38.977009 48.015881,38.977005 
z"/>
<path fill="#AF3328" opacity="1.000000" stroke="none" 
	d="
M54.342758,38.943859 
	C54.481850,38.342056 54.942585,37.708649 55.731346,37.045273 
	C55.594387,37.647617 55.129398,38.279934 54.342758,38.943859 
z"/>
<path fill="#A42B22" opacity="1.000000" stroke="none" 
	d="
M47.903309,38.761372 
	C48.015881,38.977009 48.001389,39.461834 47.992889,39.703678 
	C47.501408,39.690876 47.018429,39.436230 46.288815,39.058426 
	C46.132832,38.619705 46.314373,38.370274 46.799572,38.083881 
	C47.329662,38.089401 47.589130,38.277718 47.903309,38.761372 
z"/>
<path fill="#EE9E99" opacity="1.000000" stroke="none" 
	d="
M7.001719,37.998837 
	C6.524488,36.191257 6.053316,34.379780 5.284859,32.373417 
	C5.471547,31.784655 5.955518,31.390781 7.056026,30.988657 
	C8.099815,30.940063 8.527068,30.899723 8.969263,31.255541 
	C8.996316,32.439526 9.008427,33.227352 9.018185,34.346432 
	C9.015913,35.119419 9.015995,35.561157 8.696053,36.043243 
	C7.923962,36.718128 7.471896,37.352665 7.019830,37.987202 
	C7.019830,37.987202 7.007778,37.994942 7.001719,37.998837 
z"/>
<path fill="#D09894" opacity="1.000000" stroke="none" 
	d="
M8.954073,23.252337 
	C9.740849,22.365049 10.534182,21.716425 11.969551,21.033630 
	C13.050026,20.996605 13.488463,20.993748 13.920788,21.235184 
	C13.914674,21.479477 13.874887,21.966555 13.652969,22.049929 
	C13.166589,22.326273 12.976794,22.576021 12.529001,22.951424 
	C11.121730,23.336319 10.047126,23.652336 8.972522,23.968355 
	C8.972522,23.968355 8.960628,23.490999 8.954073,23.252337 
z"/>
<path fill="#CC6B65" opacity="1.000000" stroke="none" 
	d="
M8.863678,24.226566 
	C10.047126,23.652336 11.121730,23.336319 12.579296,23.237217 
	C12.976050,23.646196 12.989842,23.838263 13.000734,24.266609 
	C12.997835,24.502893 12.993250,24.975470 12.641085,24.987339 
	C11.182508,25.334261 10.076098,25.669313 8.786294,26.018875 
	C8.602900,26.033386 8.235467,26.052601 8.235468,26.052601 
	C8.408589,25.529993 8.581712,25.007383 8.863678,24.226566 
z"/>
<path fill="#C15750" opacity="1.000000" stroke="none" 
	d="
M8.135214,26.404583 
	C8.235467,26.052601 8.602900,26.033386 8.788986,26.425611 
	C8.968156,28.165018 8.961239,29.512201 8.954322,30.859383 
	C8.527068,30.899723 8.099815,30.940063 7.351124,30.990795 
	C7.364777,29.586313 7.699869,28.171438 8.135214,26.404583 
z"/>
<path fill="#EC6153" opacity="1.000000" stroke="none" 
	d="
M38.985733,18.993271 
	C40.368393,20.000418 41.751057,21.007566 43.533798,22.349052 
	C43.954510,23.129065 43.975136,23.574741 43.743332,23.994217 
	C43.324982,23.934942 43.159058,23.901869 42.898415,23.588608 
	C42.137890,23.462513 41.472076,23.616608 40.477463,23.799557 
	C39.710041,23.859243 39.271420,23.890076 38.533394,23.923910 
	C37.831589,23.914495 37.429199,23.902081 36.784935,23.648321 
	C35.718040,23.846834 34.893021,24.286690 34.067997,24.726543 
	C35.307148,25.805662 36.546299,26.884779 37.850193,28.296047 
	C37.873238,29.074816 37.831535,29.521435 37.496346,29.825687 
	C36.126869,29.464621 35.050884,29.245922 33.719597,28.914856 
	C32.974903,28.538088 32.485508,28.273684 31.879251,27.740772 
	C31.175972,26.980955 30.589558,26.489647 30.002377,25.569778 
	C30.001738,23.428059 30.001869,21.714897 30.420193,20.001318 
	C33.554169,19.665024 36.269951,19.329147 38.985733,18.993271 
z"/>
<path fill="#ED5C4C" opacity="1.000000" stroke="none" 
	d="
M38.990334,18.587246 
	C36.269951,19.329147 33.554169,19.665024 30.419231,19.750856 
	C29.999643,19.333855 29.999212,19.166897 29.999365,18.666868 
	C30.000195,17.889725 30.000441,17.445654 30.295853,16.854372 
	C30.733610,15.118664 30.876202,13.530164 31.237011,11.921195 
	C31.455225,11.900725 31.893953,11.889683 32.114944,11.864595 
	C32.639065,11.741856 32.841522,11.542233 33.280090,11.228464 
	C35.741673,11.498134 37.866470,11.779979 39.991272,12.061825 
	C40.351940,12.146810 40.712612,12.231794 41.324677,12.424481 
	C41.576069,12.532184 41.427288,12.810287 41.287018,12.899504 
	C40.429478,14.719555 39.712204,16.450390 38.990334,18.587246 
z"/>
<path fill="#DC624C" opacity="1.000000" stroke="none" 
	d="
M45.781532,17.059692 
	C46.801517,17.216518 47.598022,17.492159 48.679138,17.913191 
	C47.903912,19.001850 46.844070,19.945118 45.411194,20.553730 
	C45.019115,19.476814 45.000072,18.734552 44.981026,17.992290 
	C45.173367,17.721029 45.365707,17.449770 45.781532,17.059692 
z"/>
<path fill="#DC6B5B" opacity="1.000000" stroke="none" 
	d="
M44.703228,18.130985 
	C45.000072,18.734552 45.019115,19.476814 45.075630,20.587463 
	C45.086979,21.122484 45.060852,21.289118 45.024563,22.013224 
	C44.997730,22.773378 44.981060,22.976061 44.964386,23.178745 
	C44.964386,23.178745 44.997158,23.472628 44.772743,23.780533 
	C44.364136,24.065765 44.179947,24.043091 43.995758,24.020418 
	C43.975136,23.574741 43.954510,23.129065 43.877304,22.353424 
	C44.022289,20.772202 44.223858,19.520941 44.703228,18.130985 
z"/>
<path fill="#38161B" opacity="1.000000" stroke="none" 
	d="
M28.246021,56.998703 
	C27.996420,56.248531 27.998705,55.499660 28.001759,54.376358 
	C29.791164,53.326145 31.579800,52.650356 33.739479,51.936386 
	C34.110519,51.898205 34.140553,51.847759 34.103092,52.241158 
	C34.051285,53.396965 34.036934,54.159370 34.022583,54.921776 
	C33.833023,55.201946 33.643467,55.482117 33.226646,55.882828 
	C31.896893,56.314682 30.794394,56.625999 29.346786,56.969830 
	C28.833754,57.001556 28.665831,57.000778 28.246021,56.998703 
z"/>
<path fill="#6D1619" opacity="1.000000" stroke="none" 
	d="
M34.435165,54.957565 
	C34.036934,54.159370 34.051285,53.396965 34.129906,52.253952 
	C35.529480,51.909512 36.864788,51.945675 38.603729,52.384403 
	C39.002262,53.554352 38.997158,54.321743 38.992050,55.089130 
	C37.610619,55.057205 36.229183,55.025284 34.435165,54.957565 
z"/>
<path fill="#621B1E" opacity="1.000000" stroke="none" 
	d="
M39.204193,55.339264 
	C38.997158,54.321743 39.002262,53.554352 39.008308,52.405132 
	C39.829304,52.013245 40.649364,52.003193 41.747276,52.048317 
	C42.015896,53.150719 42.006657,54.197941 41.994236,55.641388 
	C41.132816,55.888206 40.274578,55.738804 39.204193,55.339264 
z"/>
<path fill="#C82822" opacity="1.000000" stroke="none" 
	d="
M49.300598,49.969864 
	C46.599506,49.644676 44.218456,49.312531 41.377373,48.653996 
	C40.272079,47.891121 39.626816,47.454636 38.981552,47.018147 
	C37.710819,46.596577 36.440086,46.175007 35.302357,45.264149 
	C35.687626,44.559055 35.876045,44.297295 36.254517,43.989525 
	C36.677685,43.988819 36.846951,43.988167 37.016216,43.987518 
	C37.457203,43.987217 37.898190,43.986916 38.878296,44.271729 
	C41.946209,45.369373 44.474998,46.181896 47.003792,46.994423 
	C47.752384,46.994019 48.500980,46.993610 49.623764,46.988014 
	C50.255737,47.455936 50.513523,47.929050 50.887070,48.643063 
	C50.987663,49.055012 50.972504,49.226067 50.927402,49.652466 
	C50.471855,49.926170 50.046246,49.944534 49.300598,49.969864 
z"/>
<path fill="#97271F" opacity="1.000000" stroke="none" 
	d="
M37.049103,43.664635 
	C36.846951,43.988167 36.677685,43.988819 36.252174,43.743683 
	C35.995934,43.497894 35.993126,43.005974 35.854683,42.706108 
	C34.805836,40.942661 33.895424,39.479088 33.257080,37.890038 
	C34.330986,37.198433 35.132824,36.632301 35.934666,36.066166 
	C36.725296,37.352501 37.515926,38.638832 38.661804,39.964699 
	C38.372032,41.116737 37.727009,42.229244 37.049103,43.664635 
z"/>
<path fill="#D52F26" opacity="1.000000" stroke="none" 
	d="
M46.944191,46.644203 
	C44.474998,46.181896 41.946209,45.369373 39.209038,44.271400 
	C41.628632,44.755299 44.256611,45.524643 46.944191,46.644203 
z"/>
<path fill="#D14D37" opacity="1.000000" stroke="none" 
	d="
M52.993568,31.023811 
	C52.995487,31.195549 52.997410,31.367290 53.009121,31.797142 
	C53.474026,35.286274 51.910812,36.413532 48.322575,35.779350 
	C47.234982,35.338303 46.712318,35.136784 46.247971,34.722294 
	C46.542603,34.140232 46.778915,33.771145 47.147804,33.155678 
	C47.516140,32.621407 47.751892,32.333508 48.301613,32.049332 
	C48.824802,32.059673 49.034023,32.066296 49.478531,31.923264 
	C50.807064,31.523674 51.900314,31.273743 52.993568,31.023811 
z"/>
<path fill="#D65B46" opacity="1.000000" stroke="none" 
	d="
M46.189651,34.935265 
	C46.712318,35.136784 47.234982,35.338303 47.914330,35.782856 
	C47.931618,36.336685 47.723099,36.590736 47.223049,36.899246 
	C45.930561,37.006405 44.860477,37.002369 43.389191,37.018738 
	C42.543114,37.007442 42.098240,36.975746 41.325531,36.597649 
	C41.011242,35.835785 41.024788,35.420322 41.262054,34.998787 
	C41.485771,34.992706 41.933224,34.981113 42.357460,34.994827 
	C43.917683,34.984116 45.053669,34.959690 46.189651,34.935265 
z"/>
<path fill="#CC928D" opacity="1.000000" stroke="none" 
	d="
M13.926901,20.990891 
	C13.488463,20.993748 13.050026,20.996605 12.281824,20.993298 
	C12.621874,19.982449 13.291690,18.977760 14.419535,18.212982 
	C14.920635,18.636204 14.963707,18.819517 14.965080,19.302544 
	C14.591221,20.065136 14.259061,20.528013 13.926901,20.990891 
z"/>
<path fill="#C46862" opacity="1.000000" stroke="none" 
	d="
M14.164598,14.234400 
	C14.055120,13.978776 14.108031,13.507511 14.150005,13.274305 
	C15.045016,13.496356 15.898053,13.951612 16.785503,14.904186 
	C16.552364,15.600778 16.284815,15.800049 15.762129,15.999444 
	C15.336915,15.997588 15.166837,15.995607 14.996758,15.993626 
	C14.755864,15.492425 14.514971,14.991224 14.164598,14.234400 
z"/>
<path fill="#B65A53" opacity="1.000000" stroke="none" 
	d="
M14.952015,16.318462 
	C15.166837,15.995607 15.336915,15.997588 15.754541,16.375929 
	C15.984858,17.504963 15.967627,18.257639 15.714504,19.006855 
	C15.478612,19.003395 15.006779,19.002832 15.006779,19.002832 
	C14.963707,18.819517 14.920635,18.636204 14.768279,18.191341 
	C14.741754,17.500961 14.824513,17.072130 14.952015,16.318462 
z"/>
<path fill="#E8C9C7" opacity="1.000000" stroke="none" 
	d="
M43.743332,23.994217 
	C44.179947,24.043091 44.364136,24.065765 44.777649,23.928303 
	C45.771717,23.796677 46.536457,23.825186 47.736759,24.119402 
	C48.471024,24.588856 48.769730,24.792603 49.040916,25.391642 
	C48.956013,26.839855 48.898621,27.892778 48.560112,28.962288 
	C47.852707,29.313803 47.426414,29.648733 46.658585,30.003807 
	C45.272663,29.338762 44.228279,28.653570 43.163017,27.557505 
	C43.127396,26.312044 43.112644,25.477457 43.097687,24.445835 
	C43.097481,24.248800 42.993130,23.868797 42.993130,23.868797 
	C43.159058,23.901869 43.324982,23.934942 43.743332,23.994217 
z"/>
<path fill="#E17865" opacity="1.000000" stroke="none" 
	d="
M49.068432,24.996349 
	C48.769730,24.792603 48.471024,24.588856 48.118881,24.106224 
	C48.634815,23.745920 49.204182,23.664501 49.922588,23.806870 
	C50.066677,24.226156 50.061733,24.421656 49.806061,24.857740 
	C49.555332,25.098326 49.068432,24.996349 49.068432,24.996349 
z"/>
<path fill="#E5AEA7" opacity="1.000000" stroke="none" 
	d="
M45.242798,23.160421 
	C44.981060,22.976061 44.997730,22.773378 45.003975,22.265388 
	C45.402088,22.089033 45.810627,22.217981 46.219166,22.346930 
	C45.986515,22.611986 45.753860,22.877043 45.242798,23.160421 
z"/>
<path fill="#782220" opacity="1.000000" stroke="none" 
	d="
M19.799969,49.661091 
	C19.610889,50.247478 19.421810,50.833862 19.113224,51.708992 
	C18.526600,52.316853 18.059483,52.635971 17.295115,52.976528 
	C16.251257,52.999573 15.504651,53.001175 14.385067,53.004578 
	C13.836576,52.446701 13.661066,51.887028 13.235935,51.161072 
	C13.016532,49.947933 13.046749,48.901081 13.409252,47.600796 
	C14.797797,47.575832 15.854055,47.804298 17.065840,48.292351 
	C18.080900,48.921650 18.940435,49.291370 19.799969,49.661091 
z"/>
<path fill="#8B2A25" opacity="1.000000" stroke="none" 
	d="
M16.910315,48.032768 
	C15.854055,47.804298 14.797797,47.575832 13.450541,47.210144 
	C12.414274,47.039078 11.669003,47.005230 10.751352,46.734314 
	C11.685717,46.284790 12.792460,46.072330 14.239964,45.908955 
	C15.036276,45.986328 15.491830,46.014618 16.062860,46.296402 
	C16.422329,47.044182 16.666321,47.538471 16.910315,48.032768 
z"/>
<path fill="#D0827C" opacity="1.000000" stroke="none" 
	d="
M13.899205,45.859871 
	C12.792460,46.072330 11.685717,46.284790 10.381605,46.762741 
	C9.974397,47.014725 9.764556,47.001221 9.238816,47.001240 
	C8.754804,46.995438 8.586690,46.976116 8.169666,46.901470 
	C7.946723,46.426308 7.972690,46.006474 8.243008,45.284599 
	C8.487359,44.982559 8.955474,44.998226 9.346653,44.998703 
	C10.767355,45.016659 11.796877,45.034138 13.043361,45.133507 
	C13.549322,45.354866 13.762283,45.569691 13.899205,45.859871 
z"/>
<path fill="#E44D41" opacity="1.000000" stroke="none" 
	d="
M31.018795,11.941665 
	C30.876202,13.530164 30.733610,15.118664 29.911034,16.897778 
	C26.489212,17.058743 23.747375,17.029089 21.003990,16.582979 
	C21.002768,14.778562 21.003094,13.390601 21.003420,12.002642 
	C21.822418,11.422035 22.641418,10.841430 23.739353,10.142685 
	C24.437847,10.022571 24.857405,10.020595 25.787678,10.207469 
	C26.824560,10.565211 27.350729,10.734103 28.219637,10.920521 
	C28.788240,10.901569 29.014105,10.865093 29.502483,10.809843 
	C29.940451,10.792283 30.115904,10.793496 30.302780,11.040854 
	C30.460133,11.600967 30.694996,11.819190 31.018795,11.941665 
z"/>
<path fill="#E45A4F" opacity="1.000000" stroke="none" 
	d="
M20.739870,12.102818 
	C21.003094,13.390601 21.002768,14.778562 20.674896,16.583870 
	C19.909163,17.003847 19.470974,17.006474 19.021294,16.662081 
	C18.980680,15.852160 18.951559,15.389256 18.922438,14.926354 
	C18.938499,14.497869 18.954561,14.069384 18.980927,13.319453 
	C19.486259,12.733004 19.981289,12.467999 20.739870,12.102818 
z"/>
<path fill="#E56D65" opacity="1.000000" stroke="none" 
	d="
M18.610535,14.939888 
	C18.951559,15.389256 18.980680,15.852160 19.013449,16.992073 
	C19.024761,18.109194 19.032425,18.549301 19.029242,19.364445 
	C19.018797,20.489849 19.019199,21.240217 19.012558,22.422493 
	C18.337940,26.570143 17.670366,30.285881 16.999531,34.375221 
	C16.992249,35.495720 16.988228,36.242619 16.658161,36.992592 
	C15.897798,37.001888 15.463481,37.008114 14.691332,37.010185 
	C13.903058,37.004074 13.452617,37.002113 13.009760,36.592705 
	C13.675592,31.771587 14.333838,27.357920 14.991167,22.708500 
	C14.990250,22.472748 14.993691,21.999929 15.265643,21.805443 
	C15.675195,20.744076 15.812795,19.877193 15.950396,19.010313 
	C15.967627,18.257639 15.984858,17.504963 16.009676,16.375805 
	C16.284815,15.800049 16.552364,15.600778 16.934826,15.173369 
	C17.466034,14.947962 17.882334,14.950691 18.610535,14.939888 
z"/>
<path fill="#EEBCB9" opacity="1.000000" stroke="none" 
	d="
M39.900116,11.763550 
	C37.866470,11.779979 35.741673,11.498134 33.298782,11.074831 
	C32.980698,10.933372 32.920990,10.633411 32.737930,10.480843 
	C32.090012,10.245771 31.625154,10.163269 31.110224,10.023050 
	C31.060152,9.965335 30.963732,9.846775 30.963732,9.846775 
	C30.702217,9.368373 30.440702,8.889971 30.104153,8.147366 
	C31.140022,7.963050 32.250927,8.042937 33.787735,8.122997 
	C34.213642,8.123170 34.435379,8.114807 34.539131,8.089657 
	C35.866192,8.396249 37.089497,8.727991 38.703247,9.106770 
	C39.332115,9.924296 39.570538,10.694787 39.900116,11.763550 
z"/>
<path fill="#D65B46" opacity="1.000000" stroke="none" 
	d="
M49.040916,25.391642 
	C49.068432,24.996349 49.555332,25.098326 49.799881,25.151020 
	C50.848839,26.054935 51.653252,26.906157 52.731865,27.884502 
	C53.003929,28.764240 53.001797,29.516851 52.996616,30.646637 
	C51.900314,31.273743 50.807064,31.523674 49.397137,31.534908 
	C49.000721,30.512707 48.920975,29.729202 48.841228,28.945700 
	C48.898621,27.892778 48.956013,26.839855 49.040916,25.391642 
z"/>
<path fill="#ED938D" opacity="1.000000" stroke="none" 
	d="
M7.261098,38.159389 
	C7.471896,37.352665 7.923962,36.718128 8.944601,36.224293 
	C9.675010,36.946724 9.836845,37.528450 9.762926,38.264229 
	C9.370921,38.952538 9.214670,39.486797 8.794153,40.012489 
	C8.353620,40.002853 8.177353,40.001785 8.001087,40.000721 
	C7.834847,39.444340 7.668607,38.887959 7.261098,38.159389 
z"/>
<path fill="#ED938D" opacity="1.000000" stroke="none" 
	d="
M8.955475,44.998226 
	C8.955474,44.998226 8.487359,44.982559 8.253935,44.967880 
	C8.014408,44.508709 8.008306,44.064213 7.991029,43.284424 
	C7.979855,42.949127 7.988743,42.475975 8.243271,42.238579 
	C8.664509,42.000996 8.831219,42.000805 9.088362,42.250832 
	C9.104355,43.333443 9.029915,44.165833 8.955475,44.998226 
z"/>
<path fill="#EA8C86" opacity="1.000000" stroke="none" 
	d="
M8.997929,42.000610 
	C8.831219,42.000805 8.664509,42.000996 8.247588,42.001999 
	C7.998106,41.557926 7.998833,41.113037 8.000323,40.334435 
	C8.177353,40.001785 8.353620,40.002853 8.788994,40.342278 
	C9.031377,41.120625 9.014652,41.560619 8.997929,42.000610 
z"/>
<path fill="#EFB0AD" opacity="1.000000" stroke="none" 
	d="
M30.291357,10.794708 
	C30.115904,10.793496 29.940451,10.792283 29.443455,10.603262 
	C29.121908,10.415454 29.036062,9.992993 29.112465,9.987076 
	C29.188866,9.981159 29.336699,9.940736 29.336699,9.940736 
	C29.699343,9.932518 30.061989,9.924300 30.694183,9.881429 
	C30.963732,9.846775 31.060152,9.965335 31.086376,10.135841 
	C31.112598,10.306348 31.129492,10.537321 30.921585,10.606962 
	C30.713676,10.676602 30.291357,10.794708 30.291357,10.794708 
z"/>
<path fill="#E49893" opacity="1.000000" stroke="none" 
	d="
M28.015648,10.015281 
	C28.015648,10.015281 27.924139,9.547589 27.909830,9.310289 
	C28.240450,9.222641 28.585381,9.372292 29.133503,9.731339 
	C29.336699,9.940736 29.188866,9.981159 28.848351,9.995842 
	C28.332167,10.000003 28.156500,9.989480 27.989105,9.987925 
	C27.997377,9.996893 28.015648,10.015281 28.015648,10.015281 
z"/>
<path fill="#E49893" opacity="1.000000" stroke="none" 
	d="
M27.876898,10.902996 
	C27.350729,10.734103 26.824560,10.565211 26.102160,10.191823 
	C26.374977,9.994377 26.844025,10.001426 27.664360,10.011877 
	C28.015648,10.015281 27.997377,9.996893 27.966930,10.219445 
	C27.936481,10.441998 27.876898,10.902996 27.876898,10.902996 
z"/>
<path fill="#761E1A" opacity="1.000000" stroke="none" 
	d="
M35.993126,43.005974 
	C35.993126,43.005974 35.995934,43.497894 35.998276,43.743736 
	C35.876045,44.297295 35.687626,44.559055 35.235100,44.913811 
	C35.034840,45.052765 34.547188,45.030315 34.303722,45.029747 
	C33.721195,44.556705 33.382133,44.084232 33.394836,43.305336 
	C34.495441,43.001270 35.244286,43.003620 35.993126,43.005974 
z"/>
<path fill="#BC221E" opacity="1.000000" stroke="none" 
	d="
M38.989296,47.344753 
	C39.626816,47.454636 40.272079,47.891121 40.962452,48.644630 
	C40.337387,48.531555 39.667213,48.101460 38.989296,47.344753 
z"/>
<path fill="#C8302A" opacity="1.000000" stroke="none" 
	d="
M17.065840,48.292351 
	C16.666321,47.538471 16.422329,47.044182 16.368891,46.143967 
	C19.705406,42.823177 22.851366,39.908314 26.330982,36.994751 
	C27.109434,36.997459 27.554232,36.998867 27.999514,37.253136 
	C28.005678,37.674484 28.011356,37.842964 28.007309,38.257965 
	C27.997587,38.504486 28.029385,38.996883 28.006899,38.991760 
	C27.984413,38.986641 27.939003,38.994713 27.687069,39.207863 
	C27.290277,40.282730 27.145418,41.144444 26.992809,42.247353 
	C26.985062,42.488544 26.934370,42.968506 26.934370,42.968506 
	C24.679571,45.027187 22.424772,47.085865 19.984970,49.402817 
	C18.940435,49.291370 18.080900,48.921650 17.065840,48.292351 
z"/>
<path fill="#85221C" opacity="1.000000" stroke="none" 
	d="
M35.854683,42.706108 
	C35.244286,43.003620 34.495441,43.001270 33.372002,43.000717 
	C32.997402,43.002522 32.502163,42.996845 32.189049,42.639267 
	C30.594101,41.855164 29.312263,41.428638 28.018654,40.667278 
	C27.984255,39.886532 27.961630,39.440624 27.939003,38.994713 
	C27.939003,38.994713 27.984413,38.986641 28.219826,38.885963 
	C28.718956,38.588970 28.901941,38.334572 29.002926,37.767803 
	C29.002165,37.343983 29.002672,37.174454 29.376549,37.010963 
	C30.496281,37.005066 31.242645,36.993126 32.092400,37.207092 
	C32.396805,37.711239 32.659882,37.905415 32.985016,38.015511 
	C33.895424,39.479088 34.805836,40.942661 35.854683,42.706108 
z"/>
<path fill="#761E1A" opacity="1.000000" stroke="none" 
	d="
M28.030428,41.002113 
	C29.312263,41.428638 30.594101,41.855164 31.941422,42.637577 
	C30.598866,42.992584 29.190826,42.991707 27.358578,42.979668 
	C26.934370,42.968506 26.985062,42.488544 27.209389,42.130989 
	C27.700335,41.568718 27.899239,41.311611 28.030428,41.002113 
z"/>
<path fill="#C05246" opacity="1.000000" stroke="none" 
	d="
M41.933224,34.981113 
	C41.933224,34.981113 41.485771,34.992706 40.909904,34.997047 
	C39.864620,35.004589 39.395203,35.007786 38.925789,35.010986 
	C38.187893,35.031303 37.450001,35.051624 36.138741,34.987022 
	C35.286350,34.733036 35.080544,34.499477 34.980206,33.847797 
	C35.031364,33.022949 35.050274,32.551723 35.457146,32.068413 
	C36.622017,32.014816 37.398922,31.973303 38.449635,32.067741 
	C39.471333,32.497242 40.219223,32.790798 41.223488,33.164482 
	C41.641769,33.321095 41.803680,33.397579 41.957020,33.725311 
	C41.943371,34.311409 41.938297,34.646263 41.933224,34.981113 
z"/>
<path fill="#9D3128" opacity="1.000000" stroke="none" 
	d="
M34.947956,34.201416 
	C35.080544,34.499477 35.286350,34.733036 35.771206,35.020363 
	C35.977039,35.138622 35.970642,35.602123 35.952652,35.834145 
	C35.132824,36.632301 34.330986,37.198433 33.257080,37.890038 
	C32.659882,37.905415 32.396805,37.711239 32.112537,36.908722 
	C32.356258,35.913528 32.683231,35.442604 33.229031,34.881477 
	C33.725735,34.621029 33.932415,34.387707 34.288963,34.110439 
	C34.510029,34.129570 34.947956,34.201416 34.947956,34.201416 
z"/>
<path fill="#CD6255" opacity="1.000000" stroke="none" 
	d="
M38.991188,35.324379 
	C39.395203,35.007786 39.864620,35.004589 40.686184,35.003128 
	C41.024788,35.420322 41.011242,35.835785 40.993023,36.560555 
	C40.344429,36.459167 39.700508,36.048470 38.991188,35.324379 
z"/>
<path fill="#EA8982" opacity="1.000000" stroke="none" 
	d="
M9.998680,38.110180 
	C9.836845,37.528450 9.675010,36.946724 9.264626,36.183945 
	C9.015995,35.561157 9.015913,35.119419 9.373697,34.279068 
	C10.818792,30.912123 11.906022,27.943796 12.993250,24.975470 
	C12.993250,24.975470 12.997835,24.502893 13.265102,24.159882 
	C14.018942,23.525997 14.505513,23.235126 14.992085,22.944254 
	C14.333838,27.357920 13.675592,31.771587 12.958894,36.912613 
	C11.933187,37.796703 10.965934,37.953442 9.998680,38.110180 
z"/>
<path fill="#ED938D" opacity="1.000000" stroke="none" 
	d="
M12.641085,24.987339 
	C11.906022,27.943796 10.818792,30.912123 9.376051,33.947815 
	C9.008427,33.227352 8.996316,32.439526 8.969263,31.255541 
	C8.961239,29.512201 8.968156,28.165018 8.972380,26.411100 
	C10.076098,25.669313 11.182508,25.334261 12.641085,24.987339 
z"/>
<path fill="#B54E46" opacity="1.000000" stroke="none" 
	d="
M15.714503,19.006855 
	C15.812795,19.877193 15.675195,20.744076 14.985900,21.800066 
	C14.247766,21.981636 14.061327,21.974094 13.874887,21.966555 
	C13.874887,21.966555 13.914674,21.479477 13.920788,21.235184 
	C14.259061,20.528013 14.591221,20.065136 14.965080,19.302544 
	C15.006779,19.002832 15.478612,19.003395 15.714503,19.006855 
z"/>
<path fill="#C05246" opacity="1.000000" stroke="none" 
	d="
M13.652969,22.049929 
	C14.061327,21.974094 14.247766,21.981636 14.713948,21.994553 
	C14.993691,21.999929 14.990250,22.472748 14.991167,22.708500 
	C14.505513,23.235126 14.018942,23.525997 13.268003,23.923597 
	C12.989842,23.838263 12.976050,23.646196 12.911963,23.168339 
	C12.976794,22.576021 13.166589,22.326273 13.652969,22.049929 
z"/>
<path fill="#E45A4F" opacity="1.000000" stroke="none" 
	d="
M19.019602,21.990583 
	C19.019199,21.240217 19.018797,20.489849 19.430408,19.375893 
	C23.227873,19.008181 26.613327,19.004059 29.998779,18.999939 
	C29.999212,19.166897 29.999643,19.333855 30.001040,19.751274 
	C30.001869,21.714897 30.001738,23.428059 29.782528,25.677992 
	C29.289022,26.414282 29.101231,26.675976 28.600355,26.999874 
	C27.133833,26.999758 26.067030,26.999611 24.956879,26.679811 
	C23.610212,26.240232 22.306900,26.120306 21.001713,25.624907 
	C20.339762,24.163149 19.679682,23.076866 19.019602,21.990583 
z"/>
<path fill="#F7C1BD" opacity="1.000000" stroke="none" 
	d="
M37.789837,29.968056 
	C37.831535,29.521435 37.873238,29.074816 37.947571,27.973820 
	C37.965298,26.872147 37.950390,26.424849 38.208481,25.827179 
	C38.598583,25.091511 38.715694,24.506208 38.832802,23.920910 
	C39.271420,23.890076 39.710041,23.859243 40.718853,23.965240 
	C41.524834,24.400919 41.760624,24.699766 41.985786,25.367966 
	C42.027107,26.473038 42.079056,27.208759 42.085907,28.341545 
	C42.058720,29.535582 42.076618,30.332550 41.878120,31.165415 
	C41.661720,31.201311 41.233570,31.289816 40.891083,31.176714 
	C39.846642,30.962654 39.144691,30.861696 38.292202,30.552116 
	C38.024391,30.218348 37.907112,30.093203 37.789837,29.968056 
z"/>
<path fill="#E34D40" opacity="1.000000" stroke="none" 
	d="
M34.980206,33.847797 
	C34.947956,34.201416 34.510029,34.129570 34.031818,34.077217 
	C33.381439,34.015907 33.209267,34.006958 32.781086,33.992416 
	C32.354362,33.985134 32.183655,33.983448 32.002220,33.619537 
	C30.993567,31.841227 29.995640,30.425138 28.998749,29.004917 
	C28.999784,29.000782 29.001221,28.996128 29.319593,28.972073 
	C30.424015,28.635103 31.210066,28.322189 31.996117,28.009277 
	C32.485508,28.273684 32.974903,28.538088 33.727600,29.258224 
	C34.350334,30.502802 34.709755,31.291647 35.069183,32.080494 
	C35.050274,32.551723 35.031364,33.022949 34.980206,33.847797 
z"/>
<path fill="#EF6A5C" opacity="1.000000" stroke="none" 
	d="
M37.935482,25.977551 
	C37.950390,26.424849 37.965298,26.872147 37.882828,27.641672 
	C36.546299,26.884779 35.307148,25.805662 34.067997,24.726543 
	C34.893021,24.286690 35.718040,23.846834 36.784916,23.957424 
	C37.329674,24.997763 37.632576,25.487656 37.935482,25.977551 
z"/>
<path fill="#E8584C" opacity="1.000000" stroke="none" 
	d="
M35.457146,32.068413 
	C34.709755,31.291647 34.350334,30.502802 33.982903,29.370588 
	C35.050884,29.245922 36.126869,29.464621 37.496346,29.825687 
	C37.907112,30.093203 38.024391,30.218348 38.171921,30.834480 
	C38.193394,31.527575 38.184612,31.729681 38.175831,31.931789 
	C37.398922,31.973303 36.622017,32.014816 35.457146,32.068413 
z"/>
<path fill="#E8584C" opacity="1.000000" stroke="none" 
	d="
M31.879251,27.740768 
	C31.210066,28.322189 30.424015,28.635103 29.319496,28.639469 
	C29.000708,27.887230 29.000391,27.443539 29.000076,26.999847 
	C29.101231,26.675976 29.289022,26.414282 29.783298,26.106550 
	C30.589558,26.489647 31.175972,26.980955 31.879251,27.740768 
z"/>
<path fill="#F1786A" opacity="1.000000" stroke="none" 
	d="
M38.208481,25.827181 
	C37.632576,25.487656 37.329674,24.997763 37.026787,24.198765 
	C37.429199,23.902081 37.831589,23.914495 38.533394,23.923908 
	C38.715694,24.506208 38.598583,25.091511 38.208481,25.827181 
z"/>
<path fill="#F4A7A0" opacity="1.000000" stroke="none" 
	d="
M41.996414,24.998611 
	C41.760624,24.699766 41.524834,24.400919 41.047653,23.936386 
	C41.472076,23.616608 42.137890,23.462513 42.898415,23.588608 
	C42.993130,23.868797 43.097481,24.248800 42.833351,24.571407 
	C42.378284,24.928879 42.187351,24.963745 41.996414,24.998611 
z"/>
<path fill="#E4554A" opacity="1.000000" stroke="none" 
	d="
M29.999365,18.666868 
	C26.613327,19.004059 23.227873,19.008181 19.441254,19.000854 
	C19.032425,18.549301 19.024761,18.109194 19.024940,17.339092 
	C19.470974,17.006474 19.909163,17.003847 20.676445,17.000328 
	C23.747375,17.029089 26.489212,17.058743 29.615868,17.044987 
	C30.000441,17.445654 30.000195,17.889725 29.999365,18.666868 
z"/>
<path fill="#E99490" opacity="1.000000" stroke="none" 
	d="
M30.302780,11.040854 
	C30.291357,10.794708 30.713676,10.676602 31.084793,10.707979 
	C31.455908,10.739355 31.826563,10.828636 31.853584,11.093252 
	C31.885056,11.535138 31.889503,11.712410 31.893953,11.889683 
	C31.893953,11.889683 31.455225,11.900725 31.237011,11.921195 
	C30.694996,11.819190 30.460133,11.600967 30.302780,11.040854 
z"/>
<path fill="#E6776F" opacity="1.000000" stroke="none" 
	d="
M32.114944,11.864595 
	C31.889503,11.712410 31.885056,11.535138 32.135277,11.083960 
	C32.566959,10.751171 32.743977,10.692291 32.920990,10.633411 
	C32.920990,10.633411 32.980698,10.933372 32.962002,11.087006 
	C32.841522,11.542233 32.639065,11.741856 32.114944,11.864595 
z"/>
<path fill="#DA938C" opacity="1.000000" stroke="none" 
	d="
M42.094521,31.129519 
	C42.076618,30.332550 42.058720,29.535582 42.348503,28.353926 
	C42.832088,27.968952 43.007992,27.968666 43.183895,27.968380 
	C44.228279,28.653570 45.272663,29.338762 46.765293,30.270544 
	C47.471573,31.026627 47.729607,31.536118 47.987644,32.045609 
	C47.751892,32.333508 47.516140,32.621407 46.788017,33.046234 
	C45.546444,33.154198 44.797245,33.125233 43.996315,32.758640 
	C43.491879,31.991680 43.039169,31.562347 42.463387,31.144314 
	C42.340317,31.155611 42.094521,31.129519 42.094521,31.129519 
z"/>
<path fill="#CD6255" opacity="1.000000" stroke="none" 
	d="
M44.048042,33.096268 
	C44.797245,33.125233 45.546444,33.154198 46.655437,33.292610 
	C46.778915,33.771145 46.542603,34.140232 46.247971,34.722294 
	C45.053669,34.959690 43.917683,34.984116 42.357460,34.994827 
	C41.938297,34.646263 41.943371,34.311409 42.290386,33.601597 
	C43.104233,33.183178 43.576138,33.139721 44.048042,33.096268 
z"/>
<path fill="#DFACA6" opacity="1.000000" stroke="none" 
	d="
M48.301613,32.049332 
	C47.729607,31.536118 47.471573,31.026627 47.106831,30.250397 
	C47.426414,29.648733 47.852707,29.313803 48.560112,28.962288 
	C48.920975,29.729202 49.000721,30.512707 49.161858,31.684566 
	C49.034023,32.066296 48.824802,32.059673 48.301613,32.049332 
z"/>
<path fill="#D87B73" opacity="1.000000" stroke="none" 
	d="
M43.163017,27.557503 
	C43.007992,27.968666 42.832088,27.968952 42.393593,27.956860 
	C42.079056,27.208759 42.027107,26.473038 41.985786,25.367966 
	C42.187351,24.963745 42.378284,24.928879 42.833557,24.768444 
	C43.112644,25.477457 43.127396,26.312044 43.163017,27.557503 
z"/>
<path fill="#D44038" opacity="1.000000" stroke="none" 
	d="
M25.997330,36.993446 
	C22.851366,39.908314 19.705406,42.823177 16.253414,45.890480 
	C15.491830,46.014618 15.036276,45.986328 14.239964,45.908955 
	C13.762283,45.569691 13.549322,45.354866 13.197462,44.854034 
	C13.741186,43.650219 14.347771,42.807770 15.311266,41.944126 
	C18.027349,39.810200 20.332018,37.631325 22.774031,35.619125 
	C23.679491,34.873035 24.907274,34.518112 25.992233,34.361130 
	C25.996712,35.489460 25.997021,36.241455 25.997330,36.993446 
z"/>
<path fill="#E36A62" opacity="1.000000" stroke="none" 
	d="
M14.954353,41.965321 
	C14.347771,42.807770 13.741186,43.650219 12.980501,44.772141 
	C11.796877,45.034138 10.767355,45.016659 9.346653,44.998703 
	C9.029915,44.165833 9.104355,43.333443 9.088362,42.250832 
	C9.014652,41.560619 9.031377,41.120625 9.053260,40.350845 
	C9.214670,39.486797 9.370921,38.952538 9.762926,38.264229 
	C10.965934,37.953442 11.933187,37.796703 12.951307,37.320061 
	C13.452617,37.002113 13.903058,37.004074 14.685360,37.422966 
	C14.996264,39.215038 14.975309,40.590179 14.954353,41.965321 
z"/>
<path fill="#E8655C" opacity="1.000000" stroke="none" 
	d="
M28.219637,10.920521 
	C27.876898,10.902996 27.936481,10.441998 27.958656,10.210478 
	C28.156500,9.989480 28.332167,10.000003 28.771948,10.001760 
	C29.036062,9.992993 29.121908,10.415454 29.180939,10.622035 
	C29.014105,10.865093 28.788240,10.901569 28.219637,10.920521 
z"/>
<path fill="#DB4E46" opacity="1.000000" stroke="none" 
	d="
M15.311265,41.944126 
	C14.975309,40.590179 14.996264,39.215038 15.023191,37.427116 
	C15.463481,37.008114 15.897798,37.001888 17.009369,36.962234 
	C20.123795,34.285488 22.560963,31.642174 25.251385,29.000431 
	C25.673460,29.003868 25.842287,29.005733 25.981422,29.329535 
	C25.963863,30.766865 25.976000,31.882257 25.988199,33.244438 
	C25.988264,33.491226 25.988064,33.984798 25.988064,33.984798 
	C24.907274,34.518112 23.679491,34.873035 22.774031,35.619125 
	C20.332018,37.631325 18.027349,39.810200 15.311265,41.944126 
z"/>
<path fill="#DF584F" opacity="1.000000" stroke="none" 
	d="
M24.998131,28.998856 
	C22.560963,31.642174 20.123795,34.285488 17.335417,36.959160 
	C16.988228,36.242619 16.992249,35.495720 17.352058,34.318581 
	C18.806429,31.259014 19.905006,28.629698 21.003586,26.000381 
	C22.306900,26.120306 23.610212,26.240232 24.956745,27.013073 
	C24.999355,28.110279 24.998743,28.554567 24.998131,28.998856 
z"/>
<path fill="#E26158" opacity="1.000000" stroke="none" 
	d="
M21.001713,25.624907 
	C19.905006,28.629698 18.806429,31.259014 17.355320,33.944977 
	C17.670366,30.285881 18.337940,26.570143 19.012558,22.422493 
	C19.679682,23.076866 20.339762,24.163149 21.001713,25.624907 
z"/>
<path fill="#ECBEBC" opacity="1.000000" stroke="none" 
	d="
M32.737930,10.480843 
	C32.743977,10.692291 32.566959,10.751171 32.108253,10.819344 
	C31.826563,10.828636 31.455908,10.739355 31.292700,10.638338 
	C31.129492,10.537321 31.112598,10.306348 31.136448,10.193558 
	C31.625154,10.163269 32.090012,10.245771 32.737930,10.480843 
z"/>
<path fill="#D83B31" opacity="1.000000" stroke="none" 
	d="
M25.992233,34.361130 
	C25.988064,33.984798 25.988264,33.491226 26.377472,33.245995 
	C28.515436,33.327759 30.264191,33.654758 32.012947,33.981758 
	C32.183655,33.983448 32.354362,33.985134 32.770092,34.235733 
	C33.015110,34.484646 33.010204,34.971680 33.010201,34.971680 
	C32.683231,35.442604 32.356258,35.913528 32.009148,36.682823 
	C31.242645,36.993126 30.496281,37.005066 29.125118,37.007870 
	C28.333221,36.999249 28.166126,36.999760 27.999029,37.000275 
	C27.554232,36.998867 27.109434,36.997459 26.330982,36.994751 
	C25.997021,36.241455 25.996712,35.489460 25.992233,34.361130 
z"/>
<path fill="#B23B34" opacity="1.000000" stroke="none" 
	d="
M28.018654,40.667278 
	C27.899239,41.311611 27.700335,41.568718 27.217136,41.889797 
	C27.145418,41.144444 27.290277,40.282730 27.687069,39.207863 
	C27.961630,39.440624 27.984255,39.886532 28.018654,40.667278 
z"/>
<path fill="#9D3128" opacity="1.000000" stroke="none" 
	d="
M27.999514,37.253136 
	C28.166126,36.999760 28.333221,36.999249 28.751747,37.001831 
	C29.002672,37.174454 29.002165,37.343983 28.756166,37.761951 
	C28.510675,38.010387 28.017033,38.011448 28.017033,38.011448 
	C28.011356,37.842964 28.005678,37.674484 27.999514,37.253136 
z"/>
<path fill="#842927" opacity="1.000000" stroke="none" 
	d="
M28.007309,38.257965 
	C28.017033,38.011448 28.510675,38.010387 28.757435,38.016239 
	C28.901941,38.334572 28.718956,38.588970 28.242313,38.891087 
	C28.029385,38.996883 27.997587,38.504486 28.007309,38.257965 
z"/>
<path fill="#DA938C" opacity="1.000000" stroke="none" 
	d="
M38.449635,32.067741 
	C38.184612,31.729681 38.193394,31.527575 38.322456,31.043102 
	C39.144691,30.861696 39.846642,30.962654 40.878696,31.253086 
	C41.208797,31.442558 41.173706,31.598942 41.119186,31.969894 
	C41.032154,32.588680 40.999638,32.836514 40.967117,33.084351 
	C40.219223,32.790798 39.471333,32.497242 38.449635,32.067741 
z"/>
<path fill="#DAA09A" opacity="1.000000" stroke="none" 
	d="
M41.223488,33.164482 
	C40.999638,32.836514 41.032154,32.588680 41.323753,32.015701 
	C41.917377,31.504709 42.251919,31.318863 42.586456,31.133015 
	C43.039169,31.562347 43.491879,31.991680 43.996315,32.758640 
	C43.576138,33.139721 43.104233,33.183178 42.298962,33.350349 
	C41.803680,33.397579 41.641769,33.321095 41.223488,33.164482 
z"/>
<path fill="#C05246" opacity="1.000000" stroke="none" 
	d="
M33.229034,34.881477 
	C33.010204,34.971680 33.015110,34.484646 33.026104,34.241325 
	C33.209267,34.006958 33.381439,34.015907 33.810753,34.058083 
	C33.932415,34.387707 33.725735,34.621029 33.229034,34.881477 
z"/>
<path fill="#E35247" opacity="1.000000" stroke="none" 
	d="
M25.251383,29.000431 
	C24.998743,28.554567 24.999355,28.110279 25.000097,27.332729 
	C26.067030,26.999611 27.133833,26.999758 28.600353,26.999874 
	C29.000391,27.443539 29.000708,27.887230 29.001122,28.663525 
	C29.001221,28.996128 28.999784,29.000782 28.625326,29.003487 
	C27.504284,29.006659 26.757698,29.007128 26.011114,29.007597 
	C25.842287,29.005733 25.673460,29.003868 25.251383,29.000431 
z"/>
<path fill="#E8584C" opacity="1.000000" stroke="none" 
	d="
M42.463387,31.144314 
	C42.251919,31.318863 41.917377,31.504709 41.378273,31.644749 
	C41.173706,31.598942 41.208797,31.442558 41.221184,31.366188 
	C41.233570,31.289816 41.661720,31.201311 41.878120,31.165415 
	C42.094521,31.129519 42.340317,31.155611 42.463387,31.144314 
z"/>
<path fill="#DE4439" opacity="1.000000" stroke="none" 
	d="
M25.981422,29.329535 
	C26.757698,29.007128 27.504284,29.006659 28.624290,29.007622 
	C29.995640,30.425138 30.993567,31.841227 32.002220,33.619537 
	C30.264191,33.654758 28.515436,33.327759 26.377407,32.999207 
	C25.976000,31.882257 25.963863,30.766865 25.981422,29.329535 
z"/>
</svg>